<?xml version="1.0" encoding="UTF-8" standalone="no"?>
<!DOCTYPE svg PUBLIC "-//W3C//DTD SVG 1.1//EN" "http://www.w3.org/Graphics/SVG/1.1/DTD/svg11.dtd">
<svg width="100%" height="100%" viewBox="0 0 2048 2048" version="1.1" xmlns="http://www.w3.org/2000/svg" xmlns:xlink="http://www.w3.org/1999/xlink" xml:space="preserve" xmlns:serif="http://www.serif.com/" style="fill-rule:evenodd;clip-rule:evenodd;stroke-linejoin:round;stroke-miterlimit:2;">
    <g id="bee" transform="matrix(1.423828,0,0,1.423828,296,414)">
        <path d="M399.535,10.915C400.862,10.964 402.189,11.013 403.516,11.062C409.122,11.455 448.621,14.219 472.52,24.254C473.171,24.352 473.822,24.449 474.473,24.547C484.525,28.118 496.644,33.537 498.543,34.386C499.636,35.185 501.061,35.809 501.292,35.91C544.478,51.567 583.213,96.337 588.993,103.018C589.178,103.231 589.177,103.203 591.479,105.517C618.929,136.339 632.694,164.955 639.106,177.7C651.283,203.274 650.867,203.306 661.29,229.624C661.674,230.586 662.058,231.547 662.442,232.509C664.717,239.739 664.737,239.533 667.121,246.792C667.296,247.684 667.472,248.577 667.648,249.469C668.791,252.931 674.355,269.777 679.182,293.549C679.476,294.661 682.12,304.64 682.78,307.465C680.41,308.243 622.287,300.705 626.999,307.199C630.949,312.642 659.344,351.773 628.211,391.257C605.969,419.464 573.649,417.268 568.458,416.915C523.088,413.832 465.637,405.673 463.969,410.694C459.59,423.873 429.789,513.569 477.048,583.796C491.585,609.245 530.96,639.748 534.215,635.304C535.186,633.979 534.791,633.766 544.936,617.787C558.635,593.943 564.778,562.164 599.493,569.537C620.151,573.925 631.16,595.996 624.611,614.539C622.25,621.223 619.244,630.794 600.448,664.444C569.932,714.868 531.745,746.635 524.594,752.584C523.853,753.172 523.113,753.76 522.372,754.348C496.242,779.488 428.182,821.128 373.548,831.669C373.298,831.717 373.406,831.843 370.5,832.546C362.243,835.324 334.668,839.175 331.53,839.613C330.515,839.609 329.499,839.605 328.484,839.601C320.326,840.188 269.229,843.861 226.497,832.469C225.482,832.185 224.467,831.9 223.452,831.616C213.773,828.828 198.256,822.905 196.501,822.489C193.161,820.143 193.032,820.69 189.315,818.768C135.271,792.191 140.733,780.499 132.524,781.884C124.243,783.282 28.788,822.191 27.435,823.35C26.329,824.297 26.524,823.423 25.637,822.479C27.141,800.481 27.915,800.784 33.523,779.506C34.436,776.898 43.717,750.356 46.269,747.406C47.575,745.718 47.275,745.712 47.807,743.769C64.956,712.354 64.366,712.117 72.07,700.237C77.682,691.583 73.509,690.896 67.941,666.406C66.488,660.415 66.783,660.449 64.921,647.329C64.715,646.051 64.509,644.773 64.303,643.495C63.709,641.311 62.742,603.185 65.403,587.484C65.742,585.484 65.673,585.704 66.008,583.502C65.993,582.576 65.979,581.649 65.964,580.723C67.805,572.575 68.136,572.822 69.305,564.485C69.774,563.178 70.243,561.871 70.712,560.564C74.631,544.88 95.703,460.551 188.297,396.207C218.128,375.476 238.179,369.679 231.407,367.809C229.744,367.35 225.397,366.15 211.407,359.718C203.631,356.209 202.309,355.94 201.471,355.768C198.669,353.589 198.736,353.77 195.628,352.282C194.992,351.876 194.355,351.471 193.719,351.065C193.574,350.994 193.551,350.767 193.406,350.695C193.123,350.556 193.138,350.579 189.788,349.127C94.416,301.546 34.712,213.704 21.969,169.488C20.462,165.763 19.193,161.057 17.805,157.3C17.454,156.37 17.103,155.44 16.752,154.509C16.158,151.798 15.564,149.086 14.97,146.374C-1.517,78.547 39.696,53.03 46.681,48.705L48.542,47.609C58.33,42.579 58.527,43.468 68.57,38.718C99.206,30.723 119.767,25.727 192.512,34.383C193.524,34.675 194.535,34.967 195.546,35.26L199.502,35.536C203.506,37.018 204.044,34.722 251.602,47.117C267.681,51.308 267.357,51.697 283.371,56.805C291.461,59.385 290.041,54.873 295.225,48.329L296.655,46.654C307.342,33.63 312.266,31.191 321.668,25.743C323.622,24.684 325.576,23.624 327.53,22.565C329.079,21.872 336.55,18.528 347.628,15.809L350.551,14.786C376.026,9.967 389.358,10.915 399.535,10.915ZM142.219,107.796C145.957,109.458 146.197,110.23 149.639,107.71C152.896,105.326 148.378,112.806 152.552,113.013C162.55,113.509 162.451,111.766 172.51,113.035C173.144,113.226 173.778,113.416 174.411,113.607C177.106,115.384 184.891,118.334 189.115,114.088L191.591,114.375C194.228,115.743 203.304,114.113 205.745,112.723C215.168,113.874 222.791,111.485 222.893,113.48C223.261,120.672 220.435,125.306 227.454,123.325C228.727,122.966 228.177,125.67 243.557,127.077C247.313,127.42 247.146,127.712 250.48,129.525C263.075,136.373 259.42,125.117 260.541,124.54C262.066,123.755 269.299,131.846 270.4,131.91C271.206,131.958 271.147,131.916 280.491,131.991C281.965,134.39 282.017,134.182 284.719,135.02C284.827,135.333 287.194,142.166 288.07,137.461C288.406,135.654 289.386,135.978 289.592,135.745L290.434,135.392C290.794,135.442 301.842,138.297 290.545,139.935C286.053,140.586 295.605,150.866 296.14,145.433C296.492,141.869 299.415,141.409 305.541,142.314C306.117,142.399 305.597,143.027 311.499,146.501C312.716,147.218 317.886,155.554 322.446,155.927C325.029,156.138 325.391,155.067 328.392,157.681C329.282,158.296 330.171,158.911 331.06,159.527C331.103,167.519 334.454,165.492 345.606,172.326C363.342,183.195 365.262,176.302 366.504,177.495C368.649,179.555 362.403,184.011 376.584,192.72C378.943,192.895 379.88,192.965 401.327,208.908C406.243,212.562 399.864,204.346 404.415,200.266C407.146,201.792 406.929,203.321 409.776,202.041C410.788,202.632 410.694,202.476 411.511,203.474C410.145,206.575 410.52,206.792 412.943,209.101L412.515,211.522C407.047,215.808 416.408,217.547 422.222,224.742C426.631,230.198 428.781,227.755 432.438,233.552C432.713,233.987 433.009,233.431 437.699,237.247C440.111,239.21 440.808,228.085 443.341,232.532C443.496,232.804 439.824,238.745 443.552,237.711C448.404,236.365 448.413,236.76 452.907,239.476C451.038,242.178 450.585,242.145 451.218,242.779C452.871,244.434 452.721,242.696 454.214,240.98C459.327,246.04 460.895,246.546 463.689,245.327C464.287,246.07 464.884,246.813 465.481,247.556C454.455,248.364 453.955,248.684 454.252,249.547C454.489,250.236 461.808,259.65 462.481,260.516C462.618,260.692 475.99,268.963 476.572,268.685C483.898,265.186 483.555,270.848 484.623,271.085C489.739,272.221 486.958,274.905 489.477,277.523C490.159,278.232 493.24,277.173 494.555,278.445C497.157,280.962 495.055,281.249 492.669,283.85C492.363,284.094 492.057,284.337 491.752,284.581C493.266,289.092 499.133,292.17 505.48,299.518C511.103,306.028 523.673,302.259 524.373,307.222C512.599,308.2 537.933,331.04 538.049,331.541C539.166,336.374 535.747,332.787 533.453,333.33C523.344,335.722 513.504,330.408 511.49,332.49C509.462,334.586 513.337,338.463 507.505,338.492C507.47,338.248 506.022,329.47 504.457,338.016C499.651,338.643 499.609,337.882 499.587,337.491C499.563,337.052 499.247,331.374 494.481,335.47C488.023,341.021 483.381,332.385 481.547,334.538C476.85,340.049 476.114,336.032 476.085,335.588C475.596,328.109 477.897,323.927 470.459,325.34C460.818,327.17 460.91,322.182 451.451,324.327C445.846,325.598 446.208,323.302 440.533,322.295C438.427,321.922 440.374,333.291 436.457,332.561C434.799,331.96 406.982,329.253 406.433,329.33C399.517,330.297 405.431,319.004 399.452,320.321C397.104,320.838 396.295,321.016 369.405,319.892C367.711,319.822 367.959,313.954 364.738,316.783C357.681,322.979 356.822,317.205 347.444,315.923C331.793,313.782 331.053,313.23 330.943,314.55C330.583,318.86 331.891,321.787 327.756,320.122C324.835,318.945 325.679,316.866 322.482,317.46C320.882,316.759 321.032,315.69 318.518,316.683C308.859,314.477 304.31,319.229 303.763,310.459C303.531,306.732 302.086,307.887 298.443,307.403C298.308,307.511 298.297,307.425 296.551,308.453C294.981,293.725 284.069,305.826 271.258,294.788C270.397,294.045 267.271,294.657 263.267,291.841C258.584,288.546 262.219,298.973 256.557,298.048C253.827,297.602 252.994,298.339 252.647,295.515C255.807,295.143 255.835,294.892 255.865,294.627C256.151,292.069 254.831,292.93 252.433,293.927C250.119,293.62 240.835,291.614 240.857,291.491C241.019,290.597 243.952,288.299 240.592,288.05C233.874,287.55 234,288.015 227.25,288.949C226.97,288.864 226.69,288.78 226.409,288.696C224.598,280.721 240.798,287.819 240.829,284.524C240.854,281.851 234.606,284.936 228.735,280.222C223.081,275.682 222.74,276.496 215.543,276.013C215.092,275.982 216.008,274.129 210.504,273.453C210.047,273.396 200.676,265.685 198.82,271.429C195.093,267.441 197.27,265.093 192.075,263.89C190.331,260.13 188.438,261.352 188.579,259.487C190.095,239.485 164.422,253.006 168.82,244.682C170.52,241.464 169.135,241.18 165.562,240.416C164.654,238.757 165,238.657 163.132,237.682C161.923,234.332 159.163,239.571 155.364,236.683C153.83,235.518 153.831,235.936 152.133,236.61C151.532,236 150.93,235.391 150.328,234.782C151.705,231.308 151.815,231.377 151.836,230.483C151.952,225.602 154.533,224.436 147.543,217.457C146.507,216.423 146.672,216.605 145.548,215.452C138.768,208.492 136.587,213.257 134.505,211.494C132.605,209.886 132.715,210.116 130.483,209.511C129.81,208.282 131.157,205.075 125.423,203.876C124.764,203.739 123.648,202.287 123.687,201.507C123.952,196.187 118.159,198.918 117.998,193.506C117.734,184.647 113.919,184.78 116.397,177.471C117.984,172.789 106.341,178.189 106.506,175.499C106.798,170.737 105.556,171.185 102.478,167.513C102.855,166.973 105.75,165.724 101.012,163.544C100.756,158.776 101.676,158.462 99.61,156.262C97.23,155.009 97.572,154.833 95.019,153.655C96.831,140.52 89.036,144.18 88.214,144.566C87.839,143.613 87.464,142.66 87.089,141.707C87.967,141.654 104.313,145.017 96.513,131.489C87.988,116.703 95.713,116.863 98.573,115.68C110.584,110.714 115.078,116.619 116.086,109.351C116.205,108.493 139.738,108.263 142.219,107.796ZM391.611,89.716C393.551,89.235 397.897,87.582 398.042,87.832C404.595,99.138 410.529,88.771 420.474,96.533C420.728,96.731 420.742,96.108 424.499,96.795L425.437,96.622C432.021,97.196 431.887,97.469 438.606,96.915C441.596,96.669 437.577,86.18 444.03,90.627C445.373,95.42 451.015,100.11 453.569,100.621C456.458,101.195 456.377,101.314 456.628,101.327C462.954,107.198 463.688,105.331 466.509,105.92C472.316,107.788 472.621,113.374 476.488,108.486C476.834,108.049 483.302,108.585 483.915,111.436C484.351,113.468 484.421,113.862 486.436,113.335C493.108,111.589 493.408,116.025 493.604,116.454C493.239,120.043 491.952,120.39 494.42,122.965C496.954,122.888 497.358,123.536 498.695,121.333C500.263,123.558 497.094,124.988 499.621,126.116C505.59,128.778 510.734,121.396 510.882,127.509C511.11,136.888 507.096,140.975 516.542,142.04C525.998,143.105 527.18,141.582 528.728,145.408C528.916,145.872 538.194,152.438 539.173,159.686C543.468,156.656 541.622,162.088 545.765,165.069C547.294,166.169 548.129,174.751 545.341,176.255C542.104,178.002 545.325,182.229 548.497,179.496C552.138,176.358 553.118,175.973 556.237,179.631C556.237,179.631 558.545,178.438 558.746,178.334C559.138,178.97 559.531,179.605 559.924,180.241C553.373,182.561 555.377,184.546 555.941,191.451C556.19,194.502 557.495,192.819 560.456,192.398L561.897,193.33L562.108,192.684C563.238,193.018 564.367,193.351 565.496,193.685C565.529,194.09 567.17,193.972 565.647,195.567C562.887,198.459 569.536,197.95 568.07,201.365C567.819,201.952 566.626,204.731 568.182,209.339C566.566,212.405 562.14,210.792 564.355,213.586C570.666,221.546 571.832,220.673 571.723,221.533C570.931,227.736 577.221,227.726 576.426,237.487C573.087,241.8 570.394,231.893 566.519,229.477C561.161,226.135 561.09,226.526 560.644,226.226C556.37,223.348 558.966,220.864 554.419,218.687C547.385,215.317 514.053,177.225 511.027,185.424C510.166,185.999 509.304,186.574 508.443,187.148C508.122,187.16 503.577,187.328 505.46,184.474C510.133,177.387 500.921,183.166 498.81,181.243C494.56,177.37 503.992,177.298 503.303,175.61C500.955,169.856 497.376,168.456 496.632,168.164C481.391,155.741 480.43,156.934 479.467,155.527C475.29,149.422 472.093,155.246 466.557,150.44C462.428,146.856 457.648,150.064 453.447,143.533C451.685,140.795 460.748,142.565 457.527,139.475C454.464,136.537 455.489,135.991 455.225,135.762C449.695,130.969 448.278,132.974 443.543,127.459C440.541,123.962 439.726,122.989 436.285,126.237C433.8,128.583 434.599,122.993 429.553,123.192C426.458,123.314 429.321,119.796 427.738,119.126C419.758,115.749 419.371,117.424 418.707,117.097C413.419,114.491 413.885,113.883 413.403,113.74C412.476,113.465 411.468,113.548 410.541,113.272C409.475,111.48 409.226,111.432 407.415,112.331C407.373,112.351 398.47,107.496 407.656,105.98C411.226,105.391 403.943,94.403 402.914,102.605C402.741,103.982 390.665,108.164 392.635,97.417C391.876,93.69 390.626,93.759 389.608,91.581C390.276,90.959 390.943,90.337 391.611,89.716ZM114.545,100.655C135.176,99.33 143.441,99.992 151.439,100.732C153.469,106.234 159.938,104.259 172.527,103.873C173.563,103.881 174.447,102.9 175.484,102.908C179.598,102.941 231.906,110.49 282.682,130.149C281.951,130.763 281.221,131.377 280.491,131.991C271.147,131.916 271.206,131.958 270.4,131.91C269.299,131.846 262.066,123.755 260.541,124.54C259.42,125.117 263.075,136.373 250.48,129.525C247.146,127.712 247.313,127.42 243.557,127.077C228.177,125.67 228.727,122.966 227.454,123.325C220.435,125.306 223.261,120.672 222.893,113.48C222.791,111.485 215.168,113.874 205.745,112.723C205.367,110.468 204.834,111.019 202.424,110.596C201.797,110.581 201.17,110.566 200.542,110.551C198.873,109.836 199.048,109.908 197.442,110.045C197.208,110.089 194.517,110.602 194.517,110.602C194.085,110.995 194.989,111.96 194.558,112.353C192.116,112.055 192.313,112.058 192.116,112.055C191.64,112.049 191.904,112.355 191.298,112.347C191.772,109.685 191.74,109.765 190.276,107.616C188.3,104.713 189.07,113.564 189.115,114.088C184.891,118.334 177.106,115.384 174.411,113.607C174.657,113.532 187.68,107.649 175.538,110.597C175.236,110.67 175.383,110.842 172.51,113.035C162.451,111.766 162.55,113.509 152.552,113.013C148.378,112.806 152.896,105.326 149.639,107.71C146.197,110.23 145.957,109.458 142.219,107.796C139.738,108.263 116.205,108.493 116.086,109.351C115.078,116.619 110.584,110.714 98.573,115.68C95.713,116.863 87.988,116.703 96.513,131.489C104.313,145.017 87.967,141.654 87.089,141.707C86.732,140.49 83.357,128.986 82.824,126.44C78.945,107.916 83.923,106.383 102.518,102.658C104.695,104.459 104.791,104.214 107.426,103.6C112.517,104.908 114.612,105.759 114.545,100.655ZM511.027,185.424C514.053,177.225 547.385,215.317 554.419,218.687C558.966,220.864 556.37,223.348 560.644,226.226C561.09,226.526 561.161,226.135 566.519,229.477C570.394,231.893 573.087,241.8 576.426,237.487C577.221,227.726 570.931,227.736 571.723,221.533C571.832,220.673 570.666,221.546 564.355,213.586C562.14,210.792 566.566,212.405 568.182,209.339C566.626,204.731 567.819,201.952 568.07,201.365C569.536,197.95 562.887,198.459 565.647,195.567C567.17,193.972 565.529,194.09 565.496,193.685L566.663,191.428C571.631,198.519 583.85,225.562 585.218,228.591C590.849,240.258 594.648,254.266 603.256,279.534C605.648,286.555 600.181,277.786 573.326,251.643C573.588,251.455 573.297,250.025 577.702,250.416C577.898,250.787 581.906,258.394 581.939,253.497C581.957,250.736 578.95,249.947 578.565,249.846C575.168,247.729 574.305,247.275 572.261,250.727C550.394,228.303 522.665,203.562 510.043,192.734C511.18,189.144 511.064,189.225 511.027,185.424ZM227.25,288.949C234,288.015 233.874,287.55 240.592,288.05C243.952,288.299 241.019,290.597 240.857,291.491C240.835,291.614 250.119,293.62 252.433,293.927C252.505,294.456 252.576,294.985 252.647,295.515C252.994,298.339 253.827,297.602 256.557,298.048C262.219,298.973 258.584,288.546 263.267,291.841C267.271,294.657 270.397,294.045 271.258,294.788C284.069,305.826 294.981,293.725 296.551,308.453L296.765,309.311C296.673,309.486 295.624,311.5 295.624,311.5C296.696,313.661 296.401,310.857 298.207,309.361C298.286,308.708 298.364,308.055 298.443,307.403C302.086,307.887 303.531,306.732 303.763,310.459C304.31,319.229 308.859,314.477 318.518,316.683C320.21,318.565 320.526,319.076 322.482,317.46C325.679,316.866 324.835,318.945 327.756,320.122C331.891,321.787 330.583,318.86 330.943,314.55C331.053,313.23 331.793,313.782 347.444,315.923C356.822,317.205 357.681,322.979 364.738,316.783C367.959,313.954 367.711,319.822 369.405,319.892C396.295,321.016 397.104,320.838 399.452,320.321C405.431,319.004 399.517,330.297 406.433,329.33C406.982,329.253 434.799,331.96 436.457,332.561L435.497,334.409C432.25,334.312 392.398,331.287 367.527,328.397C367.225,326.928 366.946,320.206 363.489,323.489C362.918,324.031 363.199,324.167 363.485,328.352C349.44,325.997 349.629,326.372 335.414,323.878C310.904,319.551 279.47,309.528 274.686,308.003C274.03,307.801 270.424,306.692 266.63,305.065C249.636,300.493 230.276,290.509 227.25,288.949ZM526.836,305.224C540.871,318.781 539.94,319.501 553.677,333.401C545.295,340.297 543.164,339.597 541.519,343.704C443.923,334.945 443.828,336.168 435.497,334.409L436.457,332.561C440.374,333.291 438.427,321.922 440.533,322.295C446.208,323.302 445.846,325.598 451.451,324.327C460.91,322.182 460.818,327.17 470.459,325.34C477.897,323.927 475.596,328.109 476.085,335.588C476.114,336.032 476.85,340.049 481.547,334.538C483.381,332.385 488.023,341.021 494.481,335.47C499.247,331.374 499.563,337.052 499.587,337.491C499.609,337.882 499.651,338.643 504.457,338.016C505.473,338.174 506.489,338.333 507.505,338.492C513.337,338.463 509.462,334.586 511.49,332.49C513.504,330.408 523.344,335.722 533.453,333.33C535.747,332.787 539.166,336.374 538.049,331.541C537.933,331.04 512.599,308.2 524.373,307.222C525.955,306.678 525.72,306.546 526.836,305.224ZM291.537,133.444C296.976,135.271 296.604,135.798 301.705,138.119C361.44,165.307 385.692,186.253 405.4,198.618C405.072,199.167 404.744,199.717 404.415,200.266C399.864,204.346 406.243,212.562 401.327,208.908C379.88,192.965 378.943,192.895 376.584,192.72C362.403,184.011 368.649,179.555 366.504,177.495C365.262,176.302 363.342,183.195 345.606,172.326C334.454,165.492 331.103,167.519 331.06,159.527C331.077,159.268 331.461,153.22 328.392,157.681C325.391,155.067 325.029,156.138 322.446,155.927C317.886,155.554 312.716,147.218 311.499,146.501C305.597,143.027 306.117,142.399 305.541,142.314C299.415,141.409 296.492,141.869 296.14,145.433C295.605,150.866 286.053,140.586 290.545,139.935C301.842,138.297 290.794,135.442 290.434,135.392C290.802,134.743 291.169,134.093 291.537,133.444ZM403.491,81.71C424.826,83.484 440.375,87.54 443.516,88.359C443.687,89.115 443.859,89.871 444.03,90.627C437.577,86.18 441.596,96.669 438.606,96.915C431.887,97.469 432.021,97.196 425.437,96.622C425.125,96.68 424.812,96.737 424.499,96.795C420.742,96.108 420.728,96.731 420.474,96.533C410.529,88.771 404.595,99.138 398.042,87.832C397.897,87.582 393.551,89.235 391.611,89.716C388.583,88.594 388.598,88.127 387.858,88.829C386.997,89.645 387.68,89.689 388.881,91.86C386.377,95.988 387.816,97.252 392.635,97.417C390.665,108.164 402.741,103.982 402.914,102.605C403.943,94.403 411.226,105.391 407.656,105.98C398.47,107.496 407.373,112.351 407.415,112.331C409.226,111.432 409.475,111.48 410.541,113.272C408.535,113.929 408.691,113.865 408.535,113.929C407.651,114.293 407.978,114.536 407.067,114.911C380.763,97.277 354.231,86.919 359.579,85.701C376.419,81.868 380.919,81.306 403.491,81.71ZM410.541,113.272C411.468,113.548 412.476,113.465 413.403,113.74C413.885,113.883 413.419,114.491 418.707,117.097C419.371,117.424 419.758,115.749 427.738,119.126C429.321,119.796 426.458,123.314 429.553,123.192C434.599,122.993 433.8,128.583 436.285,126.237C439.726,122.989 440.541,123.962 443.543,127.459C448.278,132.974 449.695,130.969 455.225,135.762C455.489,135.991 454.464,136.537 457.527,139.475C460.748,142.565 451.685,140.795 453.447,143.533C457.648,150.064 462.428,146.856 466.557,150.44C472.093,155.246 475.29,149.422 479.467,155.527C480.43,156.934 481.391,155.741 496.632,168.164C497.376,168.456 500.955,169.856 503.303,175.61C503.992,177.298 494.56,177.37 498.81,181.243C500.921,183.166 510.133,177.387 505.46,184.474C503.577,187.328 508.122,187.16 508.443,187.148C509.925,189.096 509.355,189.215 507.785,191.131C488.235,174.288 488.747,173.991 472.253,161.775C474.008,159.106 474.059,158.766 474.105,158.466C475.465,149.411 470.596,160.255 470.458,160.562C456.292,148.335 418.265,121.366 407.067,114.911C407.978,114.536 407.651,114.293 408.535,113.929C408.691,113.865 408.535,113.929 410.541,113.272ZM465.481,247.556C471.855,252.732 471.574,252.731 477.727,258.35C474.632,262.116 476.813,264.069 477.491,264.085C478.013,264.097 479.477,260.611 479.612,260.29C480.227,260.863 485.005,264.618 513.855,292.165C513.729,292.348 509.666,299.519 515.695,294.24C521.503,299.825 521.158,299.831 526.836,305.224C525.72,306.546 525.955,306.678 524.373,307.222C523.673,302.259 511.103,306.028 505.48,299.518C499.133,292.17 493.266,289.092 491.752,284.581L492.669,283.85C495.055,281.249 497.157,280.962 494.555,278.445C493.24,277.173 490.159,278.232 489.477,277.523C486.958,274.905 489.739,272.221 484.623,271.085C483.555,270.848 483.898,265.186 476.572,268.685C475.99,268.963 462.618,260.692 462.481,260.516C461.808,259.65 454.489,250.236 454.252,249.547C453.955,248.684 454.455,248.364 465.481,247.556ZM88.214,144.566C89.036,144.18 96.831,140.52 95.019,153.655C94.663,163.483 99.385,156.62 99.61,156.262C101.676,158.462 100.756,158.776 101.012,163.544C100.994,165.849 100.609,166 102.478,167.513C105.556,171.185 106.798,170.737 106.506,175.499C106.341,178.189 117.984,172.789 116.397,177.471C113.919,184.78 117.734,184.647 117.998,193.506C118.159,198.918 123.952,196.187 123.687,201.507C123.648,202.287 124.764,203.739 125.423,203.876C131.157,205.075 129.81,208.282 130.483,209.511C132.715,210.116 132.605,209.886 134.505,211.494C136.587,213.257 138.768,208.492 145.548,215.452C146.672,216.605 146.507,216.423 147.543,217.457C154.533,224.436 151.952,225.602 151.836,230.483C151.815,231.377 151.705,231.308 150.328,234.782C146.752,231.2 129.252,216.062 110.971,189.173C108.719,185.86 95.063,165.774 88.214,144.566ZM498.656,115.233C533.815,140.327 546.549,162.096 558.746,178.334C558.545,178.438 556.237,179.631 556.237,179.631C553.118,175.973 552.138,176.358 548.497,179.496C545.325,182.229 542.104,178.002 545.341,176.255C548.129,174.751 547.294,166.169 545.765,165.069C541.622,162.088 543.468,156.656 539.173,159.686C538.194,152.438 528.916,145.872 528.728,145.408C527.18,141.582 525.998,143.105 516.542,142.04C507.096,140.975 511.11,136.888 510.882,127.509C510.734,121.396 505.59,128.778 499.621,126.116C497.094,124.988 500.263,123.558 498.695,121.333C499.335,118.798 498.636,118.931 498.449,118.967C498.003,119.052 497.631,119.123 494.42,122.965C491.952,120.39 493.239,120.043 493.604,116.454C496.844,119.753 497.602,116.211 498.656,115.233ZM411.511,203.474C415.81,206.661 431.576,218.346 463.689,245.327C460.895,246.546 459.327,246.04 454.214,240.98L452.907,239.476C448.413,236.76 448.404,236.365 443.552,237.711C439.824,238.745 443.496,232.804 443.341,232.532C440.808,228.085 440.111,239.21 437.699,237.247C433.009,233.431 432.713,233.987 432.438,233.552C428.781,227.755 426.631,230.198 422.222,224.742C416.408,217.547 407.047,215.808 412.515,211.522C419.692,213.007 413.129,209.165 412.943,209.101C410.52,206.792 410.145,206.575 411.511,203.474ZM152.133,236.61C153.831,235.936 153.83,235.518 155.364,236.683C159.163,239.571 161.923,234.332 163.132,237.682C163.103,237.973 162.259,246.246 165.562,240.416C169.135,241.18 170.52,241.464 168.82,244.682C164.422,253.006 190.095,239.485 188.579,259.487C188.438,261.352 190.331,260.13 192.075,263.89C191.727,266.009 191.739,265.819 191.322,267.78C176.563,257.263 172.626,256.09 152.133,236.61ZM198.82,271.429C200.676,265.685 210.047,273.396 210.504,273.453C216.008,274.129 215.092,275.982 215.543,276.013C222.74,276.496 223.081,275.682 228.735,280.222C234.606,284.936 240.854,281.851 240.829,284.524C240.798,287.819 224.598,280.721 226.409,288.696C220.303,284.791 215.93,283.561 198.453,272.559L198.82,271.429ZM443.516,88.359C466.082,95.887 470.642,98.876 472.754,100.261C471.316,102.893 471.127,102.626 468.056,103.352L466.509,105.92C463.688,105.331 462.954,107.198 456.628,101.327C455.451,96.022 453.664,100.389 453.569,100.621C451.015,100.11 445.373,95.42 444.03,90.627C443.859,89.871 443.687,89.115 443.516,88.359ZM553.677,333.401C559.133,338.612 559.137,338.324 564.074,343.775C565.285,345.113 563.637,346.789 541.519,343.704C543.164,339.597 545.295,340.297 553.677,333.401ZM475.626,101.243C490.145,108.984 496.919,113.957 498.656,115.233C497.602,116.211 496.844,119.753 493.604,116.454C493.408,116.025 493.108,111.589 486.436,113.335C484.421,113.862 484.351,113.468 483.915,111.436C483.302,108.585 476.834,108.049 476.488,108.486C472.621,113.374 472.316,107.788 466.509,105.92L468.056,103.352C468.546,103.706 471.48,107.291 475.626,101.243ZM559.924,180.241C562.41,184.094 562.236,183.952 566.663,191.428L565.496,193.685C564.367,193.351 563.238,193.018 562.108,192.684C562.081,190.646 562.144,190.797 562.081,190.646C562.007,190.47 559.099,187.957 560.456,192.398C557.495,192.819 556.19,194.502 555.941,191.451C555.377,184.546 553.373,182.561 559.924,180.241ZM151.439,100.732C153.13,100.693 154.82,100.654 156.511,100.615C156.828,101.566 156.188,101.498 156.522,102.503C157.144,104.374 156.974,102.083 158.493,100.672L161.496,100.7C163.027,101.07 162.894,101.138 164.408,100.909C168.814,101.758 168.813,101.498 172.527,103.873C159.938,104.259 153.469,106.234 151.439,100.732ZM197.442,110.045C199.048,109.908 198.873,109.836 200.542,110.551C200.578,110.698 201.542,114.71 202.424,110.596C204.834,111.019 205.367,110.468 205.745,112.723C203.304,114.113 194.228,115.743 191.591,114.375C191.493,113.699 191.396,113.023 191.298,112.347C191.904,112.355 191.64,112.049 192.116,112.055C192.313,112.058 192.116,112.055 194.558,112.353C196.623,112.134 196.436,111.836 197.442,110.045ZM282.682,130.149C289.68,132.826 289.442,132.803 291.537,133.444C291.169,134.093 290.802,134.743 290.434,135.392L289.592,135.745C287.175,134.82 287.32,134.569 284.719,135.02C282.017,134.182 281.965,134.39 280.491,131.991C281.221,131.377 281.951,130.763 282.682,130.149ZM192.075,263.89C197.27,265.093 195.093,267.441 198.82,271.429L198.453,272.559C197.83,272.269 196.437,271.62 191.322,267.78C191.739,265.819 191.727,266.009 192.075,263.89ZM114.545,100.655C114.612,105.759 112.517,104.908 107.426,103.6C107.118,102.974 106.81,102.348 106.502,101.721L107.501,101.545L111.391,101.093C112.443,100.947 113.494,100.801 114.545,100.655ZM363.485,328.352C363.199,324.167 362.918,324.031 363.489,323.489C366.946,320.206 367.225,326.928 367.527,328.397C365.509,328.51 365.62,328.576 363.485,328.352ZM191.298,112.347C191.396,113.023 191.493,113.699 191.591,114.375L189.115,114.088C189.07,113.564 188.3,104.713 190.276,107.616C191.74,109.765 191.772,109.685 191.298,112.347ZM388.881,91.86L389.608,91.581C390.626,93.759 391.876,93.69 392.635,97.417C387.816,97.252 386.377,95.988 388.881,91.86ZM472.754,100.261C474.275,100.52 474.072,100.502 475.626,101.243C471.48,107.291 468.546,103.706 468.056,103.352C471.127,102.626 471.316,102.893 472.754,100.261ZM511.027,185.424C511.064,189.225 511.18,189.144 510.043,192.734C508.626,192.097 508.851,192.073 507.785,191.131C509.355,189.215 509.925,189.096 508.443,187.148C509.304,186.574 510.166,185.999 511.027,185.424ZM470.458,160.562C470.596,160.255 475.465,149.411 474.105,158.466C474.059,158.766 474.008,159.106 472.253,161.775L470.458,160.562ZM95.019,153.655C97.572,154.833 97.23,155.009 99.61,156.262C99.385,156.62 94.663,163.483 95.019,153.655ZM284.719,135.02C287.32,134.569 287.175,134.82 289.592,135.745C289.386,135.978 288.406,135.654 288.07,137.461C287.194,142.166 284.827,135.333 284.719,135.02ZM578.565,249.846C578.95,249.947 581.957,250.736 581.939,253.497C581.906,258.394 577.898,250.787 577.702,250.416L578.565,249.846ZM477.727,258.35C478.355,258.996 478.984,259.643 479.612,260.29C479.477,260.611 478.013,264.097 477.491,264.085C476.813,264.069 474.632,262.116 477.727,258.35ZM163.132,237.682C165,238.657 164.654,238.757 165.562,240.416C162.259,246.246 163.103,237.973 163.132,237.682ZM578.565,249.846L577.702,250.416C573.297,250.025 573.588,251.455 573.326,251.643L572.261,250.727C574.305,247.275 575.168,247.729 578.565,249.846ZM172.51,113.035C175.383,110.842 175.236,110.67 175.538,110.597C187.68,107.649 174.657,113.532 174.411,113.607C173.778,113.416 173.144,113.226 172.51,113.035ZM513.855,292.165C514.948,293.22 514.827,293.063 515.695,294.24C509.666,299.519 513.729,292.348 513.855,292.165ZM498.695,121.333C497.358,123.536 496.954,122.888 494.42,122.965C497.631,119.123 498.003,119.052 498.449,118.967C498.636,118.931 499.335,118.798 498.695,121.333ZM405.4,198.618C407.352,200.658 407.543,200.161 409.776,202.041C406.929,203.321 407.146,201.792 404.415,200.266C404.744,199.717 405.072,199.167 405.4,198.618ZM106.502,101.721C106.81,102.348 107.118,102.974 107.426,103.6C104.791,104.214 104.695,104.459 102.518,102.658C103.846,102.346 105.174,102.034 106.502,101.721ZM412.943,209.101C413.129,209.165 419.692,213.007 412.515,211.522L412.943,209.101ZM101.012,163.544C105.75,165.724 102.855,166.973 102.478,167.513C100.609,166 100.994,165.849 101.012,163.544ZM391.611,89.716C390.943,90.337 390.276,90.959 389.608,91.581L388.881,91.86C387.68,89.689 386.997,89.645 387.858,88.829C388.598,88.127 388.583,88.594 391.611,89.716ZM560.456,192.398C559.099,187.957 562.007,190.47 562.081,190.646C562.144,190.797 562.081,190.646 562.108,192.684L561.897,193.33L560.456,192.398ZM504.457,338.016C506.022,329.47 507.47,338.248 507.505,338.492C506.489,338.333 505.473,338.174 504.457,338.016ZM452.907,239.476L454.214,240.98C452.721,242.696 452.871,244.434 451.218,242.779C450.585,242.145 451.038,242.178 452.907,239.476ZM453.569,100.621C453.664,100.389 455.451,96.022 456.628,101.327C456.377,101.314 456.458,101.195 453.569,100.621ZM328.392,157.681C331.461,153.22 331.077,159.268 331.06,159.527C330.171,158.911 329.282,158.296 328.392,157.681ZM252.433,293.927C254.831,292.93 256.151,292.069 255.865,294.627C255.835,294.892 255.807,295.143 252.647,295.515C252.576,294.985 252.505,294.456 252.433,293.927ZM318.518,316.683C321.032,315.69 320.882,316.759 322.482,317.46C320.526,319.076 320.21,318.565 318.518,316.683ZM197.442,110.045C196.436,111.836 196.623,112.134 194.558,112.353C194.989,111.96 194.085,110.995 194.517,110.602C194.517,110.602 197.208,110.089 197.442,110.045ZM296.765,309.311C297.246,309.328 297.726,309.345 298.207,309.361C296.401,310.857 296.696,313.661 295.624,311.5C295.624,311.5 296.673,309.486 296.765,309.311ZM200.542,110.551C201.17,110.566 201.797,110.581 202.424,110.596C201.542,114.71 200.578,110.698 200.542,110.551ZM156.511,100.615L158.493,100.672C156.974,102.083 157.144,104.374 156.522,102.503C156.188,101.498 156.828,101.566 156.511,100.615Z" style="fill:rgb(1,1,2);fill-opacity:1;"/>
        <path d="M1013.373,222.546L1013.896,226.425C1015.121,231.531 1014.963,231.352 1015.445,236.5C1013.214,254.422 1012.708,259.283 988.479,270.365L987.55,270.761C975.741,276.087 964.456,279.292 950.643,292.603C950.254,293.222 949.866,293.842 949.477,294.461C940.159,302.398 936.711,305.35 946.13,312.932C1041.809,389.954 1005.57,527.768 1004.101,535.38C998.797,552.604 993.52,579.477 965.342,597.103C960.347,599.779 933.445,614.187 894.518,596.245C883.669,592.32 883.877,592.273 873.519,587.438C872.521,587.113 871.523,586.788 870.525,586.462C861.828,582.267 841.825,572.172 840.678,571.043C838.584,569.911 836.49,568.779 834.396,567.647C824.494,562.108 824.881,561.934 808.573,551.373C741.119,502.886 731.067,447.872 728.045,422.538C727.554,407.386 727.67,407.594 728.986,392.571C735.522,365.184 735.292,364.985 749.685,340.664C750.883,338.885 752.08,337.107 753.278,335.329C754.731,337.897 755.189,338.05 755.459,338.141C755.773,338.245 759.974,336.867 754.146,334.219C767.27,315.885 796.255,297.899 800.36,295.352C801.392,295.036 802.425,294.719 803.457,294.403C811.346,290.222 811.17,290.271 819.397,287.314C820.67,286.849 829,283.804 835.756,282.925C836.644,282.53 837.532,282.135 838.42,281.74C849.143,280.671 857.812,280.55 859.501,280.526C874.631,281.239 874.764,280.108 875.662,278.595C878.72,273.438 903.39,224.262 962.386,205.156C965.81,204.047 1000.591,189.484 1013.373,222.546Z" style="fill:rgb(1,1,2);fill-opacity:1;"/>
        <path d="M682.78,307.465C685.725,310.23 736.502,322.771 749.685,340.664C735.292,364.985 735.522,365.184 728.986,392.571C728.77,391.984 727.66,392.088 727.443,391.5C726.537,389.039 726.738,385.922 726.769,385.434C726.872,383.841 727.928,367.441 727.823,365.503C727.082,351.867 724.285,367.805 724.769,370.543C725.799,376.368 722.009,417.404 728.045,422.538C731.067,447.872 741.119,502.886 808.573,551.373C793.003,584.985 782.157,611.863 730.202,645.025C694.193,668.009 632.636,675.139 600.448,664.444C619.244,630.794 622.25,621.223 624.611,614.539C631.16,595.996 620.151,573.925 599.493,569.537C564.778,562.164 558.635,593.943 544.936,617.787C534.791,633.766 535.186,633.979 534.215,635.304C530.96,639.748 491.585,609.245 477.048,583.796C429.789,513.569 459.59,423.873 463.969,410.694C465.637,405.673 523.088,413.832 568.458,416.915C573.649,417.268 605.969,419.464 628.211,391.257C659.344,351.773 630.949,312.642 626.999,307.199C622.287,300.705 680.41,308.243 682.78,307.465Z" style="fill:rgb(220,157,24);fill-opacity:1;"/>
        <path d="M305.068,662.788C244.487,571.525 267.362,465.429 290.931,422.752C297.424,410.995 373.831,398.74 391.479,402.556C393.933,403.086 385.302,430.051 383.405,445.489C363.265,609.454 457.822,669.672 485.33,690.711C490.952,695.011 415.768,747.744 405.509,743.479C340.388,716.411 315.9,677.791 305.068,662.788Z" style="fill:rgb(219,157,24);"/>
        <path d="M207.974,619.34C208.853,622.272 214.878,642.354 220.847,655.38C259.169,735.774 282.716,744.217 310.316,769.597C317.09,775.826 171.298,779.884 138.338,657.544C111.093,556.418 201.672,471.046 200.631,478.475C197.017,504.269 189.048,550.105 207.974,619.34Z" style="fill:rgb(220,157,26);"/>
        <path d="M953.197,422.514C951.179,515.869 836.767,422.841 867.328,363.411C881.074,336.682 945.501,346.718 953.197,422.514Z" style="fill:rgb(219,156,23);"/>
        <path d="M728.986,392.571C727.67,407.594 727.554,407.386 728.045,422.538C722.009,417.404 725.799,376.368 724.769,370.543C724.285,367.805 727.082,351.867 727.823,365.503C727.928,367.441 726.872,383.841 726.769,385.434C726.738,385.922 726.537,389.039 727.443,391.5C727.66,392.088 728.77,391.984 728.986,392.571Z" style="fill:rgb(228,172,39);"/>
        <path d="M553.677,333.401C559.133,338.612 559.137,338.324 564.074,343.775C565.285,345.113 563.637,346.789 541.519,343.704C543.164,339.597 545.295,340.297 553.677,333.401Z" style="fill:rgb(225,164,39);fill-opacity:0.91;"/>
        <path d="M196.615,594.484C199.431,597.461 199.041,597.578 199.058,601.56C199.126,618.202 197.755,619.199 196.696,618.352C195.206,617.158 197.216,616.779 196.615,594.484Z" style="fill:rgb(229,172,36);"/>
        <path d="M229.57,753.728C235.708,753.699 258.803,752.371 249.636,755.882C247.114,756.848 232.891,755.969 231.438,755.879C230.123,755.797 230.504,755.44 229.57,753.728Z" style="fill:rgb(238,177,44);"/>
        <path d="M266.63,305.065C270.424,306.692 274.03,307.801 274.686,308.003C276.576,314.748 263.476,311.955 266.63,305.065Z" style="fill:rgb(7,14,11);fill-opacity:0.96;"/>
        <path d="M207.664,632.52C210.648,638.053 209.878,638.158 209.657,644.597C208.779,670.079 207.694,633.499 207.664,632.52Z" style="fill:rgb(230,175,38);"/>
        <path d="M477.664,575.632C472.398,572.273 477.614,559.538 478.025,564.661C478.479,570.318 479.341,570.249 477.664,575.632Z" style="fill:rgb(231,175,43);"/>
        <path d="M298.276,641.458C297.613,641.498 295.492,641.623 295.991,633.474C297.784,604.224 298.267,640.794 298.276,641.458Z" style="fill:rgb(230,173,43);"/>
        <path d="M218.934,663.545C222.475,663.464 221.292,665.02 221.236,667.422C220.759,687.93 218.936,663.906 218.934,663.545Z" style="fill:rgb(238,178,42);"/>
        <path d="M544.727,606.426C544.815,597.838 544.298,597.319 545.357,597.187C547.08,596.972 546.727,603.94 546.696,604.537C546.592,606.594 546.466,607.487 544.727,606.426Z" style="fill:rgb(240,182,50);"/>
        <path d="M350.551,14.786L347.628,15.809C347.045,15.652 347.112,14.528 346.53,14.371C345.236,14.022 343.85,14.455 342.511,14.431C338.635,14.361 344.604,9.182 350.551,14.786Z" style="fill:rgb(51,52,50);fill-opacity:0.04;"/>
        <path d="M882.28,419.5C882.273,419.934 881.956,440.063 880.351,424.579C880.307,424.147 878.448,406.214 882.28,419.5Z" style="fill:rgb(231,175,42);"/>
        <path d="M834.396,567.647C836.49,568.779 838.584,569.911 840.678,571.043C838.629,572.251 835.264,575.349 834.396,567.647Z" style="fill:rgb(82,80,81);fill-opacity:0.07;"/>
        <path d="M511.027,185.424C511.064,189.225 511.18,189.144 510.043,192.734C508.626,192.097 508.851,192.073 507.785,191.131C509.355,189.215 509.925,189.096 508.443,187.148C509.304,186.574 510.166,185.999 511.027,185.424Z" style="fill:rgb(61,61,61);fill-opacity:0.04;"/>
        <path d="M399.535,10.915C400.651,7.319 400.135,3.798 402.412,6.779C402.627,7.06 402.493,7.097 403.516,11.062C402.189,11.013 400.862,10.964 399.535,10.915Z" style="fill:rgb(80,80,79);fill-opacity:0.09;"/>
        <path d="M470.458,160.562C470.596,160.255 475.465,149.411 474.105,158.466C474.059,158.766 474.008,159.106 472.253,161.775L470.458,160.562Z" style="fill:rgb(55,55,56);fill-opacity:0.04;"/>
        <path d="M500.211,598.523C500.202,598.762 498.267,612.444 497.901,600.436C497.894,600.196 497.686,593.376 500.211,598.523Z" style="fill:rgb(231,175,43);"/>
        <path d="M870.525,586.462C871.523,586.788 872.521,587.113 873.519,587.438C873.056,589.801 872.843,589.639 873.531,592.062C872.693,592.523 871.856,592.983 871.018,593.443C870.913,589.874 870.61,590.052 870.525,586.462Z" style="fill:rgb(61,59,61);fill-opacity:0.04;"/>
        <path d="M194.88,589.26C194.634,589.534 189.161,595.636 190.619,587.523C190.799,586.524 192.233,588.47 194.88,589.26Z" style="fill:rgb(221,157,23);"/>
        <path d="M535.826,621.492C535.75,621.775 533.898,628.631 533.671,624.452C533.655,624.16 532.811,608.643 535.826,621.492Z" style="fill:rgb(239,179,50);"/>
        <path d="M68.916,558.983C70.128,559.424 69.913,559.511 70.712,560.564C70.243,561.871 69.774,563.178 69.305,564.485C67.316,561.59 66.284,561.064 68.916,558.983Z" style="fill:rgb(103,103,103);fill-opacity:0.06;"/>
        <path d="M223.452,831.616C224.467,831.9 225.482,832.185 226.497,832.469C225.646,837.433 223.796,835.761 223.791,835.439C223.757,833.396 223.626,833.577 223.452,831.616Z" style="fill:rgb(37,37,37);fill-opacity:0.04;"/>
        <path d="M405.4,198.618C407.352,200.658 407.543,200.161 409.776,202.041C406.929,203.321 407.146,201.792 404.415,200.266C404.744,199.717 405.072,199.167 405.4,198.618Z" style="fill:rgb(129,128,127);fill-opacity:0.13;"/>
        <path d="M106.502,101.721C106.81,102.348 107.118,102.974 107.426,103.6C104.791,104.214 104.695,104.459 102.518,102.658C103.846,102.346 105.174,102.034 106.502,101.721Z" style="fill:rgb(123,126,125);fill-opacity:0.05;"/>
        <path d="M192.512,34.383C192.706,34.221 204.914,27.146 195.546,35.26C194.535,34.967 193.524,34.675 192.512,34.383Z" style="fill:rgb(72,73,72);fill-opacity:0.06;"/>
        <path d="M754.146,334.219C759.974,336.867 755.773,338.245 755.459,338.141C755.189,338.05 754.731,337.897 753.278,335.329L754.146,334.219Z" style="fill:rgb(20,24,25);fill-opacity:0.89;"/>
        <path d="M67.655,681.262C67.916,681.608 70.527,685.083 69.416,686.381C67.388,688.749 67.64,681.695 67.655,681.262Z" style="fill:rgb(167,171,170);fill-opacity:0.18;"/>
        <path d="M391.566,586.349C395.355,589.08 397.376,589.553 395.434,590.075C392.098,590.972 391.754,586.649 391.566,586.349Z" style="fill:rgb(225,161,26);"/>
        <path d="M189.788,349.127C193.138,350.579 193.123,350.556 193.406,350.695C193.551,350.767 193.574,350.994 193.719,351.065L192.71,351.059C190.626,351.827 190.454,351.384 189.788,349.127Z" style="fill:rgb(113,112,112);fill-opacity:0.24;"/>
        <path d="M520.573,619.796C522.18,620.632 522.137,620.493 522.18,620.632C522.464,621.54 518.781,622.72 520.573,619.796Z" style="fill:rgb(236,177,43);"/>
        <path d="M16.752,154.509C17.103,155.44 17.454,156.37 17.805,157.3C15.907,156.669 15.58,156.299 16.752,154.509Z" style="fill:rgb(83,83,83);fill-opacity:0.04;"/>
        <path d="M214.528,746.256C213.513,745.649 212.984,745.615 213.743,744.747C214.237,744.182 217.964,744.744 214.528,746.256Z" style="fill:rgb(226,164,31);"/>
        <path d="M192.71,351.059L193.719,351.065C194.355,351.471 194.992,351.876 195.628,352.282L193.541,353.519C193.426,353.346 193.802,353.236 192.71,351.059Z" style="fill:rgb(115,113,117);fill-opacity:0.16;"/>
        <path d="M387.622,570.529C387.687,567.832 387.513,567.959 387.687,567.832C391.495,565.072 387.747,570.353 387.622,570.529Z" style="fill:rgb(226,165,30);"/>
        <path d="M524.594,752.584C524.903,753.133 525.213,753.682 525.523,754.232C524.789,754.222 524.055,754.212 523.321,754.203L522.372,754.348C523.113,753.76 523.853,753.172 524.594,752.584Z" style="fill:rgb(109,108,111);fill-opacity:0.24;"/>
        <path d="M156.511,100.615L158.493,100.672C156.974,102.083 157.144,104.374 156.522,102.503C156.188,101.498 156.828,101.566 156.511,100.615Z" style="fill:rgb(168,171,167);fill-opacity:0.09;"/>
        <path d="M223.495,369.497C225.54,369.499 225.441,369.368 225.54,369.499C226.598,370.89 224.932,369.636 223.214,370.025L223.495,369.497Z" style="fill:rgb(223,222,221);fill-opacity:0.06;"/>
        <path d="M107.501,101.545C109.431,100.877 109.338,100.804 111.391,101.093L107.501,101.545Z" style="fill:rgb(58,61,61);fill-opacity:0.57;"/>
        <path d="M1013.373,222.546C1013.898,224.51 1013.976,224.377 1013.896,226.425L1013.373,222.546Z" style="fill:rgb(72,72,72);fill-opacity:0.53;"/>
        <path d="M65.964,580.723C65.979,581.649 65.993,582.576 66.008,583.502C65.69,582.041 65.617,582.139 65.964,580.723Z" style="fill:rgb(58,58,60);fill-opacity:0.34;"/>
        <path d="M161.496,100.7C162.467,100.769 163.437,100.839 164.408,100.909C162.894,101.138 163.027,101.07 161.496,100.7Z" style="fill:rgb(85,86,83);fill-opacity:0.55;"/>
    </g>
</svg>
