<?xml version="1.0" encoding="UTF-8" standalone="no"?>
<!DOCTYPE svg PUBLIC "-//W3C//DTD SVG 1.1//EN" "http://www.w3.org/Graphics/SVG/1.1/DTD/svg11.dtd">
<svg width="100%" height="100%" viewBox="0 0 2048 2048" version="1.1" xmlns="http://www.w3.org/2000/svg" xmlns:xlink="http://www.w3.org/1999/xlink" xml:space="preserve" xmlns:serif="http://www.serif.com/" style="fill-rule:evenodd;clip-rule:evenodd;stroke-linejoin:round;stroke-miterlimit:2;">
    <g id="Background" transform="matrix(1.400391,0,0,1.400391,307,402)">
        <path d="M310.5,845.999L280.5,845.999C280.415,845.983 189.91,842.151 136.695,793.691C129.625,787.253 130.08,786.461 127.051,786.067C117.751,784.858 118.649,789.256 17.457,827.667C16.443,817.53 18.237,808.406 20.079,798.983C26.971,763.731 66.158,697.901 66.052,695.484C65.824,690.307 30.1,598.985 88.662,494.345C131.079,418.554 204.871,378.721 226.103,365.581C212.072,358.819 168.043,342.924 115.629,301.462C-5.214,205.869 -92.448,-17.988 193.586,27.177C237.062,34.042 279.852,49.143 282.132,48.788C289.411,47.654 303.341,-3.27 404.308,2.211C502.104,7.519 561.835,66.834 572.277,77.204C660.673,164.984 680.223,290.04 684.427,302.83C683.343,302.879 641.263,299.398 629.59,300.856C628.921,300.94 628.019,301.232 627.849,301.885C627.838,301.928 657.902,346.129 632.114,384.112C610.149,416.466 577.849,414.844 572.5,414.576C544.108,413.151 515.864,409.582 487.535,407.213C485.486,407.041 465.978,405.41 461.889,408.828C456.908,412.992 435.71,504.065 461.988,559.746C488.958,616.89 524.55,631.36 531.478,636.85C533.104,634.382 535.872,632.81 537.497,630.342C546.734,616.322 563.541,564.387 592.964,568.719C596.535,569.244 622.962,573.135 626.485,598.924C629.205,618.839 602.434,662.251 601.11,665.492C586.888,692.753 523.862,771.063 438.119,812.111C375.629,842.027 322.407,843.615 310.5,845.999ZM552.438,329.862C540.574,336.328 540.56,338.795 540.267,339.856C533.216,339.656 366.098,324.838 348.454,322.748C323.161,319.752 289.438,309.968 284.396,308.505C116.018,259.653 68.135,127.414 74.094,105.581C79.417,86.077 181.885,85.544 280.422,124.144C418.92,178.398 547.082,323.038 552.438,329.862ZM411.447,74.922C534.985,92.905 578.237,201.426 597.765,257.416C621.031,324.123 570.465,203.611 363.347,83.791C362.709,83.422 355.743,79.392 355.784,78.523C355.87,76.711 384.717,71.431 411.447,74.922ZM552.438,329.862C553.537,330.248 555.828,331.052 563.227,339.638C564.426,341.029 562.791,343.79 540.267,339.856C540.56,338.795 540.574,336.328 552.438,329.862Z" style="fill:rgb(1,1,2);fill-opacity:1;"/>
        <path d="M752.15,335.523C752.491,335.313 753.001,335.594 753.342,335.384C754.318,334.784 760.627,321.264 787.737,301.822C835.641,267.467 865.741,278.303 877.53,275.634C885.149,273.91 894.039,233.138 953.73,204.987C1016.93,175.181 1023.262,222.59 1022.507,231.5C1018.915,273.916 985.192,254.841 948.533,296.527C936.595,310.102 986.968,315.644 1010.807,400.418C1027.063,458.227 1022.388,575.676 966.387,600.22C940.608,611.519 912.066,606.675 853.361,575.777C815.338,555.764 816.895,551.878 812.006,552.329C811.283,550.339 811.345,550.302 808.166,547.942C735.243,493.812 723.375,423.746 733.348,381.464C741.846,345.439 751.81,343.808 752.15,335.523Z" style="fill:rgb(1,1,2);fill-opacity:1;"/>
        <path d="M684.427,302.83C685.401,303.171 685.541,302.692 686.507,303.489C690.638,306.896 727.397,313.935 749.744,333.229C750.301,333.672 750.858,334.115 751.415,334.558C751.66,334.879 751.905,335.201 752.15,335.523C751.81,343.808 741.846,345.439 733.348,381.464C723.375,423.746 735.243,493.812 808.166,547.942C811.345,550.302 811.283,550.339 812.006,552.329C811.208,556.617 809.104,558.55 806.663,564.544C805.832,566.387 805.72,566.303 805.522,567.517C801.44,572.992 802.805,573.583 801.437,576.468C801.237,576.89 800.802,576.539 798.393,581.444C798.218,581.8 798.177,581.715 795.709,585.607C794.995,586.732 788.982,596.215 786.657,599.594C786.504,599.767 785.707,600.672 784.692,601.704C782.058,604.647 782.593,604.978 779.807,607.781C779.287,608.303 779.468,608.449 773.566,614.559C773.071,615.071 773.164,615.049 772.683,615.635C771.676,616.677 770.8,617.52 770.633,617.681C769.714,618.434 770.056,618.725 759.537,627.545C757.851,628.958 757.705,628.702 756.428,630.442C755.821,630.851 755.214,631.259 754.607,631.668C742.829,641.065 726.156,651.319 721.46,653.409C711.833,657.692 705.012,659.711 703.201,661.086C702.516,661.606 698.555,661.649 696.6,662.759C694.894,663.727 694.803,663.454 678.463,667.388C671.871,668.975 663.746,669.191 659.47,670.394C658.937,670.544 658.958,670.43 652.565,670.889C649.477,671.038 649.56,671.663 649.506,671.681C637.943,671.642 638.004,671.639 626.496,671.682C624.543,671.233 624.615,671.032 622.616,671.137C607.042,669.042 603.832,667.581 602.322,666.895C601.362,666.458 601.316,667.005 600.689,666.281C610.07,643.322 643.781,604.463 613.031,577.218C605.772,570.787 582.165,561.191 566.075,582.096C554.632,596.964 537.123,637.103 531.478,636.85C529.055,636.741 450.604,596.47 448.443,494.501C447.664,457.74 454.634,432.093 460.958,410.629C461.564,408.573 462.802,404.371 487.535,407.213C490.367,407.538 566.611,414.567 572.5,414.576C623.534,414.651 656.811,366.619 635.112,317.306C628.79,302.938 625.325,301.775 629.59,300.856C640.888,298.423 672.193,303.381 684.427,302.83Z" style="fill:rgb(219,156,23);fill-opacity:1;"/>
        <path d="M261.959,553.467C261.301,544.253 261.304,544.312 261.249,543.516C258.285,500.541 271.723,443.665 285.861,420.724C294.073,407.399 373.802,396.196 387.31,399.941C388.745,400.339 389.614,401.02 385.212,418.433C370.388,477.075 378.886,533.623 386.46,561.512C410.443,649.824 479.886,688.188 483.137,692.75C487.253,698.528 436.733,731.224 433.298,733.136C408.971,746.677 408.091,748.924 396.369,743.79C271.961,689.31 263.909,569.039 261.959,553.467Z" style="fill:rgb(218,156,23);"/>
        <path d="M189.965,513.538C189.643,520.229 179.136,618.79 248.1,715.793C280.648,761.573 316.848,773.52 301.444,775.105C269.383,778.404 170.657,763.997 136.56,676.478C132.135,665.122 102.04,594.135 166.845,504.747C173.237,495.931 194.267,471.589 193.944,478.394C193.81,481.22 193.041,481.126 189.965,513.538Z" style="fill:rgb(219,156,25);"/>
        <path d="M866.962,378.526C867.205,376.721 868.933,363.868 873.977,356.873C876.756,353.019 883.32,349.376 884.665,348.909C930.169,333.096 971.147,398.317 955.639,442.547C939.716,487.958 865.418,437.797 866.962,378.526Z" style="fill:rgb(218,155,22);"/>
        <path d="M552.438,329.862C556.117,331.153 555.599,331.8 558.407,334.592C558.802,334.985 562.899,339.059 563.227,339.638C565.883,344.33 542.077,340.172 540.267,339.856C540.56,338.795 540.574,336.328 552.438,329.862Z" style="fill:rgb(224,163,38);fill-opacity:0.89;"/>
    </g>
</svg>
