<?xml version="1.0" encoding="UTF-8"?>
<!--Generator: Apple Native CoreSVG 341-->
<!DOCTYPE svg
PUBLIC "-//W3C//DTD SVG 1.1//EN"
       "http://www.w3.org/Graphics/SVG/1.1/DTD/svg11.dtd">
<svg version="1.1" xmlns="http://www.w3.org/2000/svg" xmlns:xlink="http://www.w3.org/1999/xlink" viewBox="0 0 3300 2200">
 <!--glyph: "", point size: 100.0, font version: "21.1d1e1", template writer version: "138.0.0"-->
 <style>.defaults {-sfsymbols-variable-value-mode:color;-sfsymbols-draw-reverses-motion-groups:true}

.monochrome-0 {-sfsymbols-motion-group:1;-sfsymbols-layer-tags:-4ce640d2565826bd}
.monochrome-1 {-sfsymbols-motion-group:0;-sfsymbols-layer-tags:-4ce640d2565826bd}

.multicolor-0:tintColor {-sfsymbols-motion-group:1;-sfsymbols-layer-tags:-4ce640d2565826bd}
.multicolor-1:tintColor {-sfsymbols-motion-group:0;-sfsymbols-layer-tags:-4ce640d2565826bd}

.hierarchical-0:tertiary {-sfsymbols-motion-group:1;-sfsymbols-layer-tags:-4ce640d2565826bd}
.hierarchical-1:primary {-sfsymbols-motion-group:0;-sfsymbols-layer-tags:-4ce640d2565826bd}

.SFSymbolsPreviewWireframe {fill:none;opacity:1.0;stroke:black;stroke-width:0.5}
</style>
 <g id="Notes">
  <rect height="2200" id="artboard" style="fill:white;opacity:1" width="3300" x="0" y="0"/>
  <line style="fill:none;stroke:black;opacity:1;stroke-width:0.5;" x1="263" x2="3036" y1="292" y2="292"/>
  <text style="stroke:none;fill:black;font-family:sans-serif;font-size:13;font-weight:bold;" transform="matrix(1 0 0 1 263 322)">Weight/Scale Variations</text>
  <text style="stroke:none;fill:black;font-family:sans-serif;font-size:13;text-anchor:middle;" transform="matrix(1 0 0 1 559.711 322)">Ultralight</text>
  <text style="stroke:none;fill:black;font-family:sans-serif;font-size:13;text-anchor:middle;" transform="matrix(1 0 0 1 856.422 322)">Thin</text>
  <text style="stroke:none;fill:black;font-family:sans-serif;font-size:13;text-anchor:middle;" transform="matrix(1 0 0 1 1153.13 322)">Light</text>
  <text style="stroke:none;fill:black;font-family:sans-serif;font-size:13;text-anchor:middle;" transform="matrix(1 0 0 1 1449.84 322)">Regular</text>
  <text style="stroke:none;fill:black;font-family:sans-serif;font-size:13;text-anchor:middle;" transform="matrix(1 0 0 1 1746.56 322)">Medium</text>
  <text style="stroke:none;fill:black;font-family:sans-serif;font-size:13;text-anchor:middle;" transform="matrix(1 0 0 1 2043.27 322)">Semibold</text>
  <text style="stroke:none;fill:black;font-family:sans-serif;font-size:13;text-anchor:middle;" transform="matrix(1 0 0 1 2339.98 322)">Bold</text>
  <text style="stroke:none;fill:black;font-family:sans-serif;font-size:13;text-anchor:middle;" transform="matrix(1 0 0 1 2636.69 322)">Heavy</text>
  <text style="stroke:none;fill:black;font-family:sans-serif;font-size:13;text-anchor:middle;" transform="matrix(1 0 0 1 2933.4 322)">Black</text>
  <line style="fill:none;stroke:black;opacity:1;stroke-width:0.5;" x1="263" x2="3036" y1="1903" y2="1903"/>
  <g transform="matrix(0.2 0 0 0.2 263 1933)">
   <path d="m46.2402 4.15039c21.7773 0 39.4531-17.627 39.4531-39.4043s-17.6758-39.4043-39.4531-39.4043c-21.7285 0-39.4043 17.627-39.4043 39.4043s17.6758 39.4043 39.4043 39.4043Zm0-7.42188c-17.6758 0-31.9336-14.3066-31.9336-31.9824s14.2578-31.9824 31.9336-31.9824 31.9824 14.3066 31.9824 31.9824-14.3066 31.9824-31.9824 31.9824Zm3.61328-17.7734v-28.4668c0-2.24609-1.46484-3.75977-3.71094-3.75977-2.14844 0-3.61328 1.51367-3.61328 3.75977v28.4668c0 2.19727 1.46484 3.71094 3.61328 3.71094 2.24609 0 3.71094-1.51367 3.71094-3.71094Zm-17.8223-10.5957h28.418c2.19727 0 3.71094-1.46484 3.71094-3.61328 0-2.19727-1.51367-3.71094-3.71094-3.71094h-28.418c-2.24609 0-3.75977 1.51367-3.75977 3.71094 0 2.14844 1.51367 3.61328 3.75977 3.61328Z"/>
  </g>
  <g transform="matrix(0.2 0 0 0.2 281.506 1933)">
   <path d="m58.5449 14.5508c27.4902 0 49.8047-22.3145 49.8047-49.8047s-22.3145-49.8047-49.8047-49.8047-49.8047 22.3145-49.8047 49.8047 22.3145 49.8047 49.8047 49.8047Zm0-8.30078c-22.9492 0-41.5039-18.5547-41.5039-41.5039s18.5547-41.5039 41.5039-41.5039 41.5039 18.5547 41.5039 41.5039-18.5547 41.5039-41.5039 41.5039Zm4.05273-23.0957v-36.9141c0-2.49023-1.70898-4.19922-4.15039-4.19922-2.39258 0-4.05273 1.70898-4.05273 4.19922v36.9141c0 2.44141 1.66016 4.15039 4.05273 4.15039 2.44141 0 4.15039-1.66016 4.15039-4.15039Zm-22.5586-14.4043h36.9629c2.44141 0 4.15039-1.61133 4.15039-4.00391 0-2.44141-1.70898-4.15039-4.15039-4.15039h-36.9629c-2.49023 0-4.15039 1.70898-4.15039 4.15039 0 2.39258 1.66016 4.00391 4.15039 4.00391Z"/>
  </g>
  <g transform="matrix(0.2 0 0 0.2 304.924 1933)">
   <path d="m74.8535 28.3203c35.1074 0 63.623-28.4668 63.623-63.5742s-28.5156-63.623-63.623-63.623-63.5742 28.5156-63.5742 63.623 28.4668 63.5742 63.5742 63.5742Zm0-9.08203c-30.127 0-54.4922-24.3652-54.4922-54.4922s24.3652-54.4922 54.4922-54.4922 54.4922 24.3652 54.4922 54.4922-24.3652 54.4922-54.4922 54.4922Zm4.44336-30.3223v-48.4863c0-2.73438-1.85547-4.63867-4.54102-4.63867-2.58789 0-4.44336 1.9043-4.44336 4.63867v48.4863c0 2.68555 1.85547 4.58984 4.44336 4.58984 2.68555 0 4.54102-1.85547 4.54102-4.58984Zm-28.7109-19.7754h48.4863c2.68555 0 4.58984-1.80664 4.58984-4.39453 0-2.73438-1.85547-4.58984-4.58984-4.58984h-48.4863c-2.73438 0-4.58984 1.85547-4.58984 4.58984 0 2.58789 1.85547 4.39453 4.58984 4.39453Z"/>
  </g>
  <text style="stroke:none;fill:black;font-family:sans-serif;font-size:13;font-weight:bold;" transform="matrix(1 0 0 1 263 1953)">Design Variations</text>
  <text style="stroke:none;fill:black;font-family:sans-serif;font-size:13;" transform="matrix(1 0 0 1 263 1971)">Symbols are supported in up to nine weights and three scales.</text>
  <text style="stroke:none;fill:black;font-family:sans-serif;font-size:13;" transform="matrix(1 0 0 1 263 1989)">For optimal layout with text and other symbols, vertically align</text>
  <text style="stroke:none;fill:black;font-family:sans-serif;font-size:13;" transform="matrix(1 0 0 1 263 2007)">symbols with the adjacent text.</text>
  <line style="fill:none;stroke:#00AEEF;stroke-width:0.5;opacity:1.0;" x1="776" x2="776" y1="1919" y2="1933"/>
  <g transform="matrix(0.2 0 0 0.2 776 1933)">
   <path d="m16.5527 0.78125c2.58789 0 3.85742-0.976562 4.78516-3.71094l20.5566-57.5195h0.244141l20.6055 57.5195c0.927734 2.73438 2.19727 3.71094 4.73633 3.71094 2.58789 0 4.24805-1.5625 4.24805-4.00391 0-0.830078-0.146484-1.61133-0.537109-2.63672l-22.9004-60.9863c-1.12305-2.97852-3.125-4.49219-6.25-4.49219-3.02734 0-5.07812 1.46484-6.15234 4.44336l-22.9004 61.084c-0.390625 1.02539-0.537109 1.80664-0.537109 2.63672 0 2.44141 1.5625 3.95508 4.10156 3.95508Zm10.2051-20.9473h30.6641c2.00195 0 3.66211-1.66016 3.66211-3.66211 0-2.05078-1.66016-3.66211-3.66211-3.66211h-30.6641c-2.00195 0-3.66211 1.61133-3.66211 3.66211 0 2.00195 1.66016 3.66211 3.66211 3.66211Z"/>
  </g>
  <line style="fill:none;stroke:#00AEEF;stroke-width:0.5;opacity:1.0;" x1="792.836" x2="792.836" y1="1919" y2="1933"/>
  <text style="stroke:none;fill:black;font-family:sans-serif;font-size:13;font-weight:bold;" transform="matrix(1 0 0 1 776 1953)">Margins</text>
  <text style="stroke:none;fill:black;font-family:sans-serif;font-size:13;" transform="matrix(1 0 0 1 776 1971)">Leading and trailing margins on the left and right side of each symbol</text>
  <text style="stroke:none;fill:black;font-family:sans-serif;font-size:13;" transform="matrix(1 0 0 1 776 1989)">can be adjusted by modifying the x-location of the margin guidelines.</text>
  <text style="stroke:none;fill:black;font-family:sans-serif;font-size:13;" transform="matrix(1 0 0 1 776 2007)">Modifications are automatically applied proportionally to all</text>
  <text style="stroke:none;fill:black;font-family:sans-serif;font-size:13;" transform="matrix(1 0 0 1 776 2025)">scales and weights.</text>
  <g transform="matrix(0.2 0 0 0.2 1289 1933)">
   <path d="m14.209 13.1348 7.86133 7.86133c4.29688 4.39453 9.32617 4.10156 13.8672-1.02539l60.6934-68.2129-4.88281-4.88281-60.2539 67.6758c-1.80664 1.95312-3.4668 2.44141-5.81055 0.0976562l-5.17578-5.12695c-2.29492-2.29492-1.80664-3.95508 0.195312-5.81055l67.4805-62.1582-4.88281-4.83398-68.0664 62.5977c-4.98047 4.58984-5.32227 9.47266-1.02539 13.8184Zm44.873-97.4609c-2.05078 2.00195-2.24609 4.88281-1.07422 6.78711 1.12305 1.80664 3.4668 3.02734 6.5918 2.24609 5.85938-1.66016 12.5977-2.39258 18.8965 0.927734l-2.68555 7.12891c-1.61133 4.00391-0.732422 6.88477 1.70898 9.42383l10.2539 10.3027c2.34375 2.39258 4.54102 2.44141 7.08008 1.95312l4.44336-0.732422 2.58789 2.53906-0.195312 2.24609c-0.0976562 2.29492 0.537109 4.29688 2.7832 6.49414l3.36914 3.32031c2.29492 2.29492 5.51758 2.49023 7.8125 0.195312l12.9883-13.0371c2.29492-2.34375 2.14844-5.37109-0.195312-7.66602l-3.41797-3.41797c-2.19727-2.19727-4.05273-3.02734-6.34766-2.88086l-2.34375 0.244141-2.44141-2.44141 1.02539-4.6875c0.634766-2.73438-0.244141-4.98047-2.88086-7.61719l-11.2793-11.1816c-12.9395-12.8418-35.5957-11.0352-46.6797-0.146484Zm7.08008 2.05078c8.78906-6.39648 25.9766-5.66406 33.6914 1.95312l12.3047 12.207c1.02539 1.02539 1.2207 1.80664 0.927734 3.32031l-1.46484 6.64062 6.73828 6.68945 4.39453-0.244141c1.12305-0.0488281 1.51367 0.0488281 2.34375 0.878906l2.53906 2.49023-10.8398 10.8398-2.49023-2.49023c-0.830078-0.878906-0.976562-1.2207-0.927734-2.39258l0.292969-4.3457-6.68945-6.73828-6.83594 1.17188c-1.41602 0.292969-2.05078 0.195312-3.17383-0.878906l-8.93555-8.88672c-1.07422-1.02539-1.17188-1.70898-0.488281-3.36914l4.58984-11.4746c-6.10352-6.34766-17.041-7.51953-25.5859-4.58984-0.683594 0.244141-0.927734-0.390625-0.390625-0.78125Z"/>
  </g>
  <text style="stroke:none;fill:black;font-family:sans-serif;font-size:13;font-weight:bold;" transform="matrix(1 0 0 1 1289 1953)">Exporting</text>
  <text style="stroke:none;fill:black;font-family:sans-serif;font-size:13;" transform="matrix(1 0 0 1 1289 1971)">Symbols should be outlined when exporting to ensure the</text>
  <text style="stroke:none;fill:black;font-family:sans-serif;font-size:13;" transform="matrix(1 0 0 1 1289 1989)">design is preserved when submitting to Xcode.</text>
  <text id="template-version" style="stroke:none;fill:black;font-family:sans-serif;font-size:13;text-anchor:end;" transform="matrix(1 0 0 1 3036 1933)">Template v.7.0</text>
  <text style="stroke:none;fill:black;font-family:sans-serif;font-size:13;text-anchor:end;" transform="matrix(1 0 0 1 3036 1951)">Requires Xcode 26 or greater</text>
  <text id="descriptive-name" style="stroke:none;fill:black;font-family:sans-serif;font-size:13;text-anchor:end;" transform="matrix(1 0 0 1 3036 1969)">Generated from focusrite</text>
  <text style="stroke:none;fill:black;font-family:sans-serif;font-size:13;text-anchor:end;" transform="matrix(1 0 0 1 3036 1987)">Typeset at 100.0 points</text>
  <text style="stroke:none;fill:black;font-family:sans-serif;font-size:13;" transform="matrix(1 0 0 1 263 726)">Small</text>
  <text style="stroke:none;fill:black;font-family:sans-serif;font-size:13;" transform="matrix(1 0 0 1 263 1156)">Medium</text>
  <text style="stroke:none;fill:black;font-family:sans-serif;font-size:13;" transform="matrix(1 0 0 1 263 1586)">Large</text>
 </g>
 <g id="Guides">
  <g id="H-reference" style="fill:#27AAE1;stroke:none;" transform="matrix(1 0 0 1 339 696)">
   <path d="M0.993654 0L3.63775 0L29.3281-67.1323L30.0303-67.1323L30.0303-70.459L28.1226-70.459ZM11.6885-24.4799L46.9815-24.4799L46.2315-26.7285L12.4385-26.7285ZM55.1196 0L57.7637 0L30.6382-70.459L29.4326-70.459L29.4326-67.1323Z"/>
  </g>
  <line id="Baseline-S" style="fill:none;stroke:#27AAE1;opacity:1;stroke-width:0.5;" x1="263" x2="3036" y1="696" y2="696"/>
  <line id="Capline-S" style="fill:none;stroke:#27AAE1;opacity:1;stroke-width:0.5;" x1="263" x2="3036" y1="625.541" y2="625.541"/>
  <g id="H-reference" style="fill:#27AAE1;stroke:none;" transform="matrix(1 0 0 1 339 1126)">
   <path d="M0.993654 0L3.63775 0L29.3281-67.1323L30.0303-67.1323L30.0303-70.459L28.1226-70.459ZM11.6885-24.4799L46.9815-24.4799L46.2315-26.7285L12.4385-26.7285ZM55.1196 0L57.7637 0L30.6382-70.459L29.4326-70.459L29.4326-67.1323Z"/>
  </g>
  <line id="Baseline-M" style="fill:none;stroke:#27AAE1;opacity:1;stroke-width:0.5;" x1="263" x2="3036" y1="1126" y2="1126"/>
  <line id="Capline-M" style="fill:none;stroke:#27AAE1;opacity:1;stroke-width:0.5;" x1="263" x2="3036" y1="1055.54" y2="1055.54"/>
  <g id="H-reference" style="fill:#27AAE1;stroke:none;" transform="matrix(1 0 0 1 339 1556)">
   <path d="M0.993654 0L3.63775 0L29.3281-67.1323L30.0303-67.1323L30.0303-70.459L28.1226-70.459ZM11.6885-24.4799L46.9815-24.4799L46.2315-26.7285L12.4385-26.7285ZM55.1196 0L57.7637 0L30.6382-70.459L29.4326-70.459L29.4326-67.1323Z"/>
  </g>
  <line id="Baseline-L" style="fill:none;stroke:#27AAE1;opacity:1;stroke-width:0.5;" x1="263" x2="3036" y1="1556" y2="1556"/>
  <line id="Capline-L" style="fill:none;stroke:#27AAE1;opacity:1;stroke-width:0.5;" x1="263" x2="3036" y1="1485.54" y2="1485.54"/>
  <line id="right-margin-Black-S" style="fill:none;stroke:#00AEEF;stroke-width:0.5;opacity:1.0;" x1="2989.45" x2="2989.45" y1="600.785" y2="720.121"/>
  <line id="left-margin-Black-S" style="fill:none;stroke:#00AEEF;stroke-width:0.5;opacity:1.0;" x1="2877.35" x2="2877.35" y1="600.785" y2="720.121"/>
  <line id="right-margin-Regular-S" style="fill:none;stroke:#00AEEF;stroke-width:0.5;opacity:1.0;" x1="1504.9" x2="1504.9" y1="600.785" y2="720.121"/>
  <line id="left-margin-Regular-S" style="fill:none;stroke:#00AEEF;stroke-width:0.5;opacity:1.0;" x1="1394.79" x2="1394.79" y1="600.785" y2="720.121"/>
  <line id="right-margin-Ultralight-S" style="fill:none;stroke:#00AEEF;stroke-width:0.5;opacity:1.0;" x1="613.72" x2="613.72" y1="600.785" y2="720.121"/>
  <line id="left-margin-Ultralight-S" style="fill:none;stroke:#00AEEF;stroke-width:0.5;opacity:1.0;" x1="505.702" x2="505.702" y1="600.785" y2="720.121"/>
 </g>
 <g id="Symbols">
  <g id="Black-S" transform="matrix(1 0 0 1 2877.35 696)">
   <path class="monochrome-0 multicolor-0:tintColor hierarchical-0:tertiary SFSymbolsPreviewWireframe" d="M14.2083-20.4243L9.50496-20.4243C8.17448-20.4243 7.09432-21.5044 7.09432-22.8349L7.09432-49.8769C7.09432-51.2074 8.17448-52.2876 9.50496-52.2876L102.787-52.2876C104.118-52.2876 105.198-51.2074 105.198-49.8769L105.198-22.8349C105.198-21.5044 104.118-20.4243 102.787-20.4243L98.2081-20.4243L98.2081-17.5786C98.2081-17.3465 98.0197-17.1581 97.7876-17.1581L88.7147-17.1581C88.4826-17.1581 88.2942-17.3465 88.2942-17.5786L88.2942-20.4243L24.1563-20.4243L24.1563-17.6041C24.1563-17.3733 23.9688-17.1858 23.738-17.1858L14.6266-17.1858C14.3958-17.1858 14.2083-17.3733 14.2083-17.6041L14.2083-20.4243Z"/>
   <path class="monochrome-1 multicolor-1:tintColor hierarchical-1:primary SFSymbolsPreviewWireframe" d="M60.0476-18.3679C57.4194-18.3689 29.1129-18.3816 27.1957-18.3679C26.0141-18.3595 26.4988-17.7307 26.0168-16.7982C25.2962-15.4045 24.3516-15.1119 22.8433-15.1045C15.109-15.066 15.1157-15.0335 14.4564-15.1575C11.9395-15.6315 12.2636-18.0716 11.8215-18.2804C11.0107-18.6635 6.03622-17.2799 5.01022-23.2304C4.81448-24.3673 4.94453-24.3737 4.95861-37.6523C4.97201-50.0574 4.83492-50.1395 5.49993-51.3496C6.88189-53.8644 8.47903-54.3076 10.4405-54.3022C22.0529-54.2717 47.9763-54.3531 63.3991-54.323C102.659-54.2462 102.812-54.6997 104.337-53.8286C107.544-51.9965 107.224-49.6079 107.222-47.0374C107.2-23.7265 107.353-22.8781 106.97-21.9004C105.272-17.5738 101.974-18.5321 100.913-18.3528C99.806-18.1658 100.774-16.1272 98.5585-15.2946C97.6773-14.9631 88.6987-15.071 88.213-15.2299C85.7645-16.0307 86.5777-18.0391 85.9043-18.3099C85.6113-18.4276 85.5946-18.3645 60.0476-18.3679ZM105.164-23.583C105.201-26.664 105.177-29.3146 105.189-38.6582C105.205-49.851 105.272-49.9663 104.523-50.9859C103.359-52.569 101.376-52.2643 100.941-52.2636C95.9836-52.2546 10.6021-52.2613 10.4399-52.2582C6.70994-52.1835 7.10378-48.5501 7.10813-47.0378C7.11584-44.2879 7.084-25.1047 7.14668-23.5773C7.23115-21.5112 8.80684-20.501 10.4375-20.4564C12.0052-20.4138 91.233-20.443 98.2588-20.4457C102.543-20.4474 104.573-19.956 105.164-23.583ZM89.5427-18.4041C89.4458-18.4004 88.4638-18.3622 88.3632-18.1292C87.9643-17.2068 89.423-17.1897 89.5437-17.1884C90.1604-17.1813 95.157-17.1227 97.2536-17.1904C98.1639-17.2196 98.2917-17.9147 98.1686-18.1607C97.9786-18.5395 97.6974-18.4027 89.5427-18.4041ZM20.8305-18.3967C15.0785-18.2352 13.5882-18.8981 14.4228-17.5088C14.6608-17.113 16.4731-17.2246 16.4738-17.2246C22.8473-17.2202 24.0892-16.9538 24.1519-17.8799C24.2132-18.7855 23.6588-18.3096 20.8305-18.3967ZM22.8433-24.7907C21.9537-24.8165 17.7529-24.5718 14.0612-28.8806C11.612-31.7393 9.62033-38.1752 14.5515-43.6065C16.7778-46.0584 19.466-46.7559 21.829-47.0971C22.9311-47.2563 27.4155-47.0924 30.4798-43.9517C37.1362-37.1277 33.24-26.4076 24.5219-24.8889C24.1689-24.8272 22.978-24.7944 22.8433-24.7907ZM21.4905-26.7998C21.0595-26.8406 18.7614-27.0592 16.565-29.0431C14.5331-30.8789 14.0179-32.704 13.7367-33.613C13.433-34.5954 13.4156-37.2756 13.7488-38.3371C14.9102-42.0372 16.567-42.7809 17.6811-43.8113C18.1236-44.2202 17.9868-45.1312 17.2002-44.601C15.7652-43.6336 14.8029-42.3626 14.631-42.1357C9.3371-35.1465 14.6032-26.7086 21.1557-25.8512C28.9735-24.8282 33.3902-31.6539 32.8572-36.6431C32.3256-41.6229 29.5641-43.512 28.2894-44.5068C28.2351-44.549 27.38-45.2167 27.4407-44.3573C27.4692-43.9551 28.4043-43.2646 28.4442-43.2314C33.9432-38.622 32.34-30.8947 27.4903-28.0037C24.7937-26.3965 22.2597-26.726 21.4905-26.7998ZM21.1915-42.8825C20.8986-42.7779 18.2815-42.313 16.5419-39.2897C13.6214-34.2147 18.5114-27.2536 24.8581-29.258C29.5657-30.7445 32.0092-37.6654 26.6108-41.7808C26.11-42.1625 25.3582-42.4531 25.2432-42.4977C23.5033-43.1708 23.1875-43.1104 21.1915-42.8825ZM26.2062-37.172C26.2796-37.1576 27.0016-37.2068 27.3773-36.5606C27.4665-36.4071 27.5238-35.8946 27.4373-35.6747C26.7897-34.0266 24.5789-35.1649 25.2747-36.6035C25.5268-37.1251 25.6518-36.9809 26.2062-37.172ZM19.1717-34.8576C19.1466-34.8622 18.2593-34.7469 17.9017-35.672C17.3386-37.1294 19.7911-37.8105 20.2047-36.324C20.3512-35.7984 20.0817-35.4579 20.0351-35.3989C19.6674-34.9343 19.2009-34.8696 19.1717-34.8576ZM22.8621-33.4169C23.4788-33.1562 23.6233-33.2577 23.8204-32.6162C24.3875-30.77 21.2984-30.6537 21.4231-32.2951C21.458-32.7536 21.8783-33.1173 21.9396-33.1706C22.2122-33.4065 22.2457-33.3207 22.8621-33.4169ZM86.7071-33.9663C86.6246-32.101 86.7118-32.0812 86.0759-30.3215C83.0308-21.8907 70.2382-21.4077 67.1384-30.9654C66.0467-34.3316 66.6162-41.1959 73.8266-43.5894C74.2044-43.7148 75.8404-44.2578 78.7937-43.8569C79.7296-43.7298 81.2204-42.9737 81.4209-42.8721C84.7596-41.1791 86.6306-37.0758 86.6766-34.9765C86.6876-34.4684 86.6916-34.4815 86.7071-33.9663ZM68.2375-33.9643C68.8586-26.3969 75.4027-24.9361 78.1331-25.6393C78.776-25.8049 79.8117-25.7513 82.054-27.4014C84.9054-29.5 87.0064-35.9479 82.2109-40.3794C80.5353-41.9279 77.6849-42.7809 77.4111-42.0409C77.1966-41.4603 77.6487-37.4851 77.0498-37.117C76.8966-37.0232 76.1776-36.866 76.0197-37.6235C75.9564-37.9258 76.0228-41.8622 75.9778-41.9701C75.6353-42.7954 72.9173-41.9175 71.1489-40.2895C68.5204-37.8698 68.339-34.8626 68.2375-33.9643ZM41.2432-48.8555C42.1012-49.0693 42.0835-49.2185 42.9606-49.1246C45.2359-48.8806 47.1152-47.3331 47.6468-45.6974C48.2797-43.749 48.1443-43.2887 47.7585-41.9765C46.7961-38.7021 43.38-38.2134 42.6188-38.2144C41.9524-38.2151 40.5239-38.6887 40.3335-38.7839C36.0629-40.9163 36.3136-47.4671 41.2432-48.8555ZM42.6121-39.8535C47.6254-40.1353 47.2473-46.0473 44.0101-47.1869C42.9255-47.5687 43.1802-46.8487 43.1765-45.6987C43.1762-45.5955 43.1728-44.5695 42.9057-44.4367C42.843-44.4056 42.3215-44.1465 42.2521-45.022C42.2192-45.4369 42.3744-47.1658 41.9256-47.3029C40.8668-47.6257 37.6832-44.9164 39.4074-41.756C40.3191-40.0854 42.3154-39.8836 42.6121-39.8535ZM101.396-43.6866C101.386-43.4161 101.602-40.8707 99.0384-39.1643C95.7087-36.9474 92.0743-39.1224 91.2129-41.3366C90.7125-42.6234 90.6729-42.6251 90.6917-44.0131C90.7427-47.7373 96-51.2051 99.7537-47.5328C101.538-45.7875 101.372-44.0815 101.396-43.6866ZM99.797-43.038C99.8382-43.8327 99.9521-44.4106 99.2647-45.6974C98.7669-46.6295 97.4473-47.3954 96.9201-47.3481C96.1086-47.2754 96.8192-44.6576 96.2256-44.4009C95.3286-44.0127 95.5864-46.5182 95.5824-46.7033C95.5485-48.1955 93.4033-46.6097 92.8831-45.7054C91.0437-42.5078 93.9051-39.1526 96.9281-39.9543C99.3378-40.5935 99.6307-42.5319 99.797-43.038ZM91.7087-28.2695C91.767-28.6751 91.7134-30.3148 93.4687-31.7427C96.7535-34.4144 101.257-30.9041 100.32-27.2502C99.1926-22.8583 92.3495-22.4997 91.7087-28.2695ZM99.4138-28.2675C98.9258-33.2141 92.7863-32.0943 92.7997-28.2695C92.8134-24.4149 98.9908-23.407 99.4138-28.2675ZM95.5425-30.4328C95.6769-30.4445 96.6985-30.5334 97.2147-30.2109C99.2741-28.9262 98.2058-26.1391 96.2353-26.059C93.8937-25.9638 92.5741-29.3468 95.5425-30.4328ZM39.9463-24.9281C39.6182-25.2204 37.3101-27.275 38.8661-30.3118C41.0799-34.6323 47.979-32.4717 46.8052-27.2258C46.1214-24.1716 42.658-22.9311 39.9463-24.9281ZM45.8302-28.9144C45.622-29.7624 45.7169-29.8124 45.1343-30.477C43.1668-32.7228 39.5217-31.1709 39.3953-28.594C39.1701-24.0107 46.3363-23.3903 45.8302-28.9144ZM44.7844-27.9149C44.5725-27.0015 44.6406-26.9174 43.874-26.3952C42.2752-25.3062 39.2736-27.1185 40.916-29.627C41.8566-31.0636 44.8176-30.773 44.8172-28.2672C44.8172-28.1492 44.7844-28.0329 44.7844-27.9149ZM51.4951-47.3706C51.5092-47.921 51.5051-48.838 51.72-48.9758C52.4406-49.438 52.3696-48.1184 52.3595-45.0267C52.2988-26.2125 52.3796-26.2149 52.3555-24.5795C52.3364-23.2961 51.661-23.7281 51.6043-23.8619C51.4156-24.306 51.5095-24.3295 51.5115-35.9774C51.5135-45.9786 51.5071-46.4592 51.4951-47.3706ZM80.4948-48.1878C80.6138-48.1918 82.8203-48.4422 82.6004-47.3435C82.5146-46.9137 82.3577-46.7592 77.1419-46.8698C72.7537-46.963 70.7115-46.5484 70.8623-47.6863C70.9608-48.4301 72.7081-48.1925 80.4948-48.1878ZM61.389-25.0873C61.6236-25.0474 61.867-25.0816 62.1016-25.0417C62.5645-24.9633 62.6537-24.3469 62.0691-24.2111C61.7188-24.1297 56.3824-24.1649 56.3526-24.1676C55.286-24.2571 55.6185-24.9123 55.9859-25.0119C56.4032-25.1248 56.4115-25.0772 61.389-25.0873ZM59.3786-29.389C56.8935-29.3974 55.5826-29.2463 55.6681-29.9488C55.7087-30.2846 56.9183-30.29 57.031-30.2903C61.9176-30.3121 62.4338-30.3389 62.4931-29.977C62.6211-29.1926 60.9486-29.3857 59.3786-29.389ZM58.3724-27.7359C58.5979-27.7299 58.8239-27.7396 59.0494-27.7332C60.2155-27.7017 59.8126-26.9466 59.4044-26.8437C59.3866-26.8393 56.0807-26.6553 55.7656-26.9995C55.7274-27.0414 55.3413-27.4634 55.9872-27.6742C56.2664-27.7654 57.7493-27.7369 58.3724-27.7359Z"/>
  </g>
  <g id="Regular-S" transform="matrix(1 0 0 1 1394.79 696)">
   <path class="monochrome-0 multicolor-0:tintColor hierarchical-0:tertiary SFSymbolsPreviewWireframe" d="M14.2171-20.4243L9.51376-20.4243C8.18329-20.4243 7.10312-21.5044 7.10312-22.8349L7.10312-49.8769C7.10312-51.2074 8.18329-52.2876 9.51376-52.2876L102.796-52.2876C104.127-52.2876 105.207-51.2074 105.207-49.8769L105.207-22.8349C105.207-21.5044 104.127-20.4243 102.796-20.4243L98.2169-20.4243L98.2169-17.5786C98.2169-17.3465 98.0285-17.1581 97.7965-17.1581L88.7235-17.1581C88.4915-17.1581 88.303-17.3465 88.303-17.5786L88.303-20.4243L24.1651-20.4243L24.1651-17.6041C24.1651-17.3733 23.9776-17.1858 23.7468-17.1858L14.6354-17.1858C14.4046-17.1858 14.2171-17.3733 14.2171-17.6041L14.2171-20.4243Z"/>
   <path class="monochrome-1 multicolor-1:tintColor hierarchical-1:primary SFSymbolsPreviewWireframe" d="M60.0564-18.3679C57.4282-18.3689 29.1217-18.3816 27.2045-18.3679C26.0229-18.3595 26.5076-17.7307 26.0256-16.7982C25.305-15.4045 24.3604-15.1119 22.8521-15.1045C15.1178-15.066 15.1245-15.0335 14.4652-15.1575C11.9483-15.6315 12.2724-18.0716 11.8303-18.2804C11.0195-18.6635 6.04503-17.2799 5.01903-23.2304C4.82328-24.3673 4.95334-24.3737 4.96741-37.6523C4.98082-50.0574 4.84373-50.1395 5.50873-51.3496C6.89069-53.8644 8.48784-54.3076 10.4493-54.3022C22.0617-54.2717 47.9851-54.3531 63.4079-54.323C102.668-54.2462 102.821-54.6997 104.346-53.8286C107.553-51.9965 107.233-49.6079 107.23-47.0374C107.209-23.7265 107.362-22.8781 106.979-21.9004C105.281-17.5738 101.982-18.5321 100.922-18.3528C99.8148-18.1658 100.783-16.1272 98.5673-15.2946C97.6861-14.9631 88.7075-15.071 88.2218-15.2299C85.7733-16.0307 86.5865-18.0391 85.9131-18.3099C85.6202-18.4276 85.6034-18.3645 60.0564-18.3679ZM105.173-23.583C105.21-26.664 105.185-29.3146 105.198-38.6582C105.214-49.851 105.281-49.9663 104.532-50.9859C103.368-52.569 101.385-52.2643 100.95-52.2636C95.9924-52.2546 10.6109-52.2613 10.4487-52.2582C6.71874-52.1835 7.11258-48.5501 7.11694-47.0378C7.12465-44.2879 7.09281-25.1047 7.15549-23.5773C7.23995-21.5112 8.81565-20.501 10.4463-20.4564C12.014-20.4138 91.2418-20.443 98.2676-20.4457C102.552-20.4474 104.581-19.956 105.173-23.583ZM89.5515-18.4041C89.4546-18.4004 88.4726-18.3622 88.372-18.1292C87.9731-17.2068 89.4319-17.1897 89.5525-17.1884C90.1693-17.1813 95.1658-17.1227 97.2624-17.1904C98.1728-17.2196 98.3005-17.9147 98.1774-18.1607C97.9874-18.5395 97.7062-18.4027 89.5515-18.4041ZM20.8393-18.3967C15.0873-18.2352 13.597-18.8981 14.4316-17.5088C14.6696-17.113 16.482-17.2246 16.4826-17.2246C22.8561-17.2202 24.098-16.9538 24.1607-17.8799C24.222-18.7855 23.6676-18.3096 20.8393-18.3967ZM22.8521-24.7907C21.9625-24.8165 17.7617-24.5718 14.07-28.8806C11.6208-31.7393 9.62914-38.1752 14.5604-43.6065C16.7866-46.0584 19.4748-46.7559 21.8378-47.0971C22.9399-47.2563 27.4243-47.0924 30.4886-43.9517C37.145-37.1277 33.2488-26.4076 24.5307-24.8889C24.1778-24.8272 22.9869-24.7944 22.8521-24.7907ZM21.4993-26.7998C21.0683-26.8406 18.7702-27.0592 16.5738-29.0431C14.5419-30.8789 14.0267-32.704 13.7455-33.613C13.4418-34.5954 13.4244-37.2756 13.7576-38.3371C14.919-42.0372 16.5758-42.7809 17.69-43.8113C18.1324-44.2202 17.9956-45.1312 17.209-44.601C15.774-43.6336 14.8117-42.3626 14.6398-42.1357C9.34591-35.1465 14.612-26.7086 21.1645-25.8512C28.9823-24.8282 33.399-31.6539 32.866-36.6431C32.3344-41.6229 29.5729-43.512 28.2982-44.5068C28.2439-44.549 27.3888-45.2167 27.4495-44.3573C27.478-43.9551 28.4131-43.2646 28.453-43.2314C33.952-38.622 32.3488-30.8947 27.4991-28.0037C24.8025-26.3965 22.2686-26.726 21.4993-26.7998ZM21.2003-42.8825C20.9074-42.7779 18.2903-42.313 16.5507-39.2897C13.6302-34.2147 18.5202-27.2536 24.8669-29.258C29.5745-30.7445 32.018-37.6654 26.6196-41.7808C26.1188-42.1625 25.367-42.4531 25.252-42.4977C23.5121-43.1708 23.1963-43.1104 21.2003-42.8825ZM26.215-37.172C26.2884-37.1576 27.0104-37.2068 27.3861-36.5606C27.4753-36.4071 27.5326-35.8946 27.4461-35.6747C26.7986-34.0266 24.5877-35.1649 25.2835-36.6035C25.5356-37.1251 25.6606-36.9809 26.215-37.172ZM19.1805-34.8576C19.1554-34.8622 18.2681-34.7469 17.9105-35.672C17.3474-37.1294 19.7999-37.8105 20.2135-36.324C20.36-35.7984 20.0905-35.4579 20.0439-35.3989C19.6762-34.9343 19.2097-34.8696 19.1805-34.8576ZM22.8709-33.4169C23.4876-33.1562 23.6321-33.2577 23.8292-32.6162C24.3963-30.77 21.3072-30.6537 21.4319-32.2951C21.4668-32.7536 21.8871-33.1173 21.9485-33.1706C22.221-33.4065 22.2545-33.3207 22.8709-33.4169ZM86.7159-33.9663C86.6334-32.101 86.7206-32.0812 86.0847-30.3215C83.0396-21.8907 70.247-21.4077 67.1472-30.9654C66.0555-34.3316 66.625-41.1959 73.8355-43.5894C74.2132-43.7148 75.8492-44.2578 78.8025-43.8569C79.7384-43.7298 81.2293-42.9737 81.4297-42.8721C84.7685-41.1791 86.6394-37.0758 86.6854-34.9765C86.6964-34.4684 86.7004-34.4815 86.7159-33.9663ZM68.2463-33.9643C68.8674-26.3969 75.4115-24.9361 78.1419-25.6393C78.7848-25.8049 79.8205-25.7513 82.0629-27.4014C84.9143-29.5 87.0152-35.9479 82.2197-40.3794C80.5441-41.9279 77.6937-42.7809 77.4199-42.0409C77.2054-41.4603 77.6575-37.4851 77.0586-37.117C76.9054-37.0232 76.1864-36.866 76.0286-37.6235C75.9652-37.9258 76.0316-41.8622 75.9867-41.9701C75.6441-42.7954 72.9261-41.9175 71.1577-40.2895C68.5292-37.8698 68.3478-34.8626 68.2463-33.9643ZM41.252-48.8555C42.11-49.0693 42.0923-49.2185 42.9695-49.1246C45.2447-48.8806 47.124-47.3331 47.6557-45.6974C48.2885-43.749 48.1531-43.2887 47.7673-41.9765C46.805-38.7021 43.3888-38.2134 42.6276-38.2144C41.9612-38.2151 40.5327-38.6887 40.3423-38.7839C36.0717-40.9163 36.3224-47.4671 41.252-48.8555ZM42.6209-39.8535C47.6342-40.1353 47.2561-46.0473 44.0189-47.1869C42.9343-47.5687 43.189-46.8487 43.1853-45.6987C43.185-45.5955 43.1816-44.5695 42.9145-44.4367C42.8518-44.4056 42.3303-44.1465 42.2609-45.022C42.228-45.4369 42.3832-47.1658 41.9344-47.3029C40.8756-47.6257 37.692-44.9164 39.4162-41.756C40.3279-40.0854 42.3242-39.8836 42.6209-39.8535ZM101.405-43.6866C101.395-43.4161 101.611-40.8707 99.0472-39.1643C95.7175-36.9474 92.0832-39.1224 91.2217-41.3366C90.7213-42.6234 90.6818-42.6251 90.7005-44.0131C90.7515-47.7373 96.0088-51.2051 99.7625-47.5328C101.547-45.7875 101.381-44.0815 101.405-43.6866ZM99.8058-43.038C99.847-43.8327 99.961-44.4106 99.2735-45.6974C98.7758-46.6295 97.4561-47.3954 96.9289-47.3481C96.1174-47.2754 96.828-44.6576 96.2344-44.4009C95.3374-44.0127 95.5952-46.5182 95.5912-46.7033C95.5573-48.1955 93.4122-46.6097 92.8919-45.7054C91.0525-42.5078 93.9139-39.1526 96.9369-39.9543C99.3466-40.5935 99.6395-42.5319 99.8058-43.038ZM91.7175-28.2695C91.7758-28.6751 91.7222-30.3148 93.4775-31.7427C96.7623-34.4144 101.265-30.9041 100.328-27.2502C99.2014-22.8583 92.3583-22.4997 91.7175-28.2695ZM99.4227-28.2675C98.9346-33.2141 92.7951-32.0943 92.8085-28.2695C92.8222-24.4149 98.9997-23.407 99.4227-28.2675ZM95.5513-30.4328C95.6857-30.4445 96.7073-30.5334 97.2235-30.2109C99.2829-28.9262 98.2147-26.1391 96.2441-26.059C93.9025-25.9638 92.5829-29.3468 95.5513-30.4328ZM39.9552-24.9281C39.627-25.2204 37.3189-27.275 38.8749-30.3118C41.0887-34.6323 47.9878-32.4717 46.814-27.2258C46.1302-24.1716 42.6668-22.9311 39.9552-24.9281ZM45.839-28.9144C45.6308-29.7624 45.7257-29.8124 45.1431-30.477C43.1756-32.7228 39.5305-31.1709 39.4041-28.594C39.1789-24.0107 46.3451-23.3903 45.839-28.9144ZM44.7932-27.9149C44.5814-27.0015 44.6494-26.9174 43.8828-26.3952C42.284-25.3062 39.2824-27.1185 40.9248-29.627C41.8654-31.0636 44.8264-30.773 44.826-28.2672C44.826-28.1492 44.7932-28.0329 44.7932-27.9149ZM51.5039-47.3706C51.518-47.921 51.5139-48.838 51.7288-48.9758C52.4494-49.438 52.3784-48.1184 52.3683-45.0267C52.3077-26.2125 52.3884-26.2149 52.3643-24.5795C52.3452-23.2961 51.6698-23.7281 51.6132-23.8619C51.4244-24.306 51.5183-24.3295 51.5203-35.9774C51.5223-45.9786 51.516-46.4592 51.5039-47.3706ZM80.5036-48.1878C80.6226-48.1918 82.8291-48.4422 82.6092-47.3435C82.5234-46.9137 82.3665-46.7592 77.1507-46.8698C72.7625-46.963 70.7203-46.5484 70.8711-47.6863C70.9696-48.4301 72.7169-48.1925 80.5036-48.1878ZM61.3978-25.0873C61.6324-25.0474 61.8758-25.0816 62.1104-25.0417C62.5733-24.9633 62.6625-24.3469 62.0779-24.2111C61.7276-24.1297 56.3912-24.1649 56.3614-24.1676C55.2948-24.2571 55.6273-24.9123 55.9947-25.0119C56.412-25.1248 56.4204-25.0772 61.3978-25.0873ZM59.3874-29.389C56.9023-29.3974 55.5914-29.2463 55.6769-29.9488C55.7175-30.2846 56.9271-30.29 57.0398-30.2903C61.9264-30.3121 62.4426-30.3389 62.5019-29.977C62.63-29.1926 60.9574-29.3857 59.3874-29.389ZM58.3812-27.7359C58.6067-27.7299 58.8327-27.7396 59.0582-27.7332C60.2243-27.7017 59.8215-26.9466 59.4132-26.8437C59.3954-26.8393 56.0895-26.6553 55.7745-26.9995C55.7362-27.0414 55.3501-27.4634 55.996-27.6742C56.2752-27.7654 57.7581-27.7369 58.3812-27.7359Z"/>
  </g>
  <g id="Ultralight-S" transform="matrix(1 0 0 1 505.702 696)">
   <path class="monochrome-0 multicolor-0:tintColor hierarchical-0:tertiary SFSymbolsPreviewWireframe" d="M12.5553-20.4243L7.85192-20.4243C6.52145-20.4243 5.44128-21.5044 5.44128-22.8349L5.44128-49.8769C5.44128-51.2074 6.52145-52.2876 7.85192-52.2876L101.134-52.2876C102.465-52.2876 103.545-51.2074 103.545-49.8769L103.545-22.8349C103.545-21.5044 102.465-20.4243 101.134-20.4243L96.555-20.4243L96.555-17.5786C96.555-17.3465 96.3666-17.1581 96.1346-17.1581L87.0616-17.1581C86.8296-17.1581 86.6412-17.3465 86.6412-17.5786L86.6412-20.4243L22.5033-20.4243L22.5033-17.6041C22.5033-17.3733 22.3158-17.1858 22.0849-17.1858L12.9736-17.1858C12.7428-17.1858 12.5553-17.3733 12.5553-17.6041L12.5553-20.4243Z"/>
   <path class="monochrome-1 multicolor-1:tintColor hierarchical-1:primary SFSymbolsPreviewWireframe" d="M58.3946-18.3679C55.7664-18.3689 27.4599-18.3816 25.5426-18.3679C24.3611-18.3595 24.8458-17.7307 24.3638-16.7982C23.6431-15.4045 22.6986-15.1119 21.1903-15.1045C13.4559-15.066 13.4626-15.0335 12.8033-15.1575C10.2864-15.6315 10.6106-18.0716 10.1684-18.2804C9.35764-18.6635 4.38319-17.2799 3.35719-23.2304C3.16144-24.3673 3.29149-24.3737 3.30557-37.6523C3.31898-50.0574 3.18189-50.1395 3.84689-51.3496C5.22885-53.8644 6.826-54.3076 8.78749-54.3022C20.3999-54.2717 46.3233-54.3531 61.7461-54.323C101.006-54.2462 101.159-54.6997 102.684-53.8286C105.891-51.9965 105.571-49.6079 105.569-47.0374C105.547-23.7265 105.7-22.8781 105.317-21.9004C103.619-17.5738 100.321-18.5321 99.2601-18.3528C98.153-18.1658 99.121-16.1272 96.9054-15.2946C96.0242-14.9631 87.0457-15.071 86.56-15.2299C84.1115-16.0307 84.9246-18.0391 84.2513-18.3099C83.9583-18.4276 83.9416-18.3645 58.3946-18.3679ZM103.511-23.583C103.548-26.664 103.524-29.3146 103.536-38.6582C103.552-49.851 103.619-49.9663 102.87-50.9859C101.706-52.569 99.723-52.2643 99.2882-52.2636C94.3305-52.2546 8.94905-52.2613 8.78682-52.2582C5.0569-52.1835 5.45074-48.5501 5.4551-47.0378C5.46281-44.2879 5.43097-25.1047 5.49365-23.5773C5.57811-21.5112 7.15381-20.501 8.78447-20.4564C10.3521-20.4138 89.58-20.443 96.6058-20.4457C100.89-20.4474 102.92-19.956 103.511-23.583ZM87.8897-18.4041C87.7928-18.4004 86.8107-18.3622 86.7102-18.1292C86.3113-17.2068 87.77-17.1897 87.8907-17.1884C88.5074-17.1813 93.504-17.1227 95.6006-17.1904C96.5109-17.2196 96.6386-17.9147 96.5156-18.1607C96.3256-18.5395 96.0443-18.4027 87.8897-18.4041ZM19.1775-18.3967C13.4254-18.2352 11.9352-18.8981 12.7698-17.5088C13.0078-17.113 14.8201-17.2246 14.8208-17.2246C21.1943-17.2202 22.4361-16.9538 22.4988-17.8799C22.5602-18.7855 22.0058-18.3096 19.1775-18.3967ZM21.1903-24.7907C20.3007-24.8165 16.0998-24.5718 12.4081-28.8806C9.95896-31.7393 7.9673-38.1752 12.8985-43.6065C15.1248-46.0584 17.813-46.7559 20.176-47.0971C21.2781-47.2563 25.7625-47.0924 28.8267-43.9517C35.4831-37.1277 31.587-26.4076 22.8689-24.8889C22.5159-24.8272 21.325-24.7944 21.1903-24.7907ZM19.8375-26.7998C19.4064-26.8406 17.1084-27.0592 14.912-29.0431C12.8801-30.8789 12.3649-32.704 12.0837-33.613C11.78-34.5954 11.7626-37.2756 12.0957-38.3371C13.2572-42.0372 14.914-42.7809 16.0281-43.8113C16.4706-44.2202 16.3338-45.1312 15.5471-44.601C14.1122-43.6336 13.1499-42.3626 12.9779-42.1357C7.68407-35.1465 12.9501-26.7086 19.5026-25.8512C27.3204-24.8282 31.7371-31.6539 31.2042-36.6431C30.6726-41.6229 27.911-43.512 26.6363-44.5068C26.582-44.549 25.727-45.2167 25.7876-44.3573C25.8161-43.9551 26.7513-43.2646 26.7912-43.2314C32.2902-38.622 30.687-30.8947 25.8372-28.0037C23.1407-26.3965 20.6067-26.726 19.8375-26.7998ZM19.5385-42.8825C19.2455-42.7779 16.6284-42.313 14.8888-39.2897C11.9684-34.2147 16.8584-27.2536 23.2051-29.258C27.9127-30.7445 30.3562-37.6654 24.9577-41.7808C24.457-42.1625 23.7051-42.4531 23.5902-42.4977C21.8502-43.1708 21.5345-43.1104 19.5385-42.8825ZM24.5532-37.172C24.6266-37.1576 25.3485-37.2068 25.7243-36.5606C25.8134-36.4071 25.8708-35.8946 25.7843-35.6747C25.1367-34.0266 22.9258-35.1649 23.6217-36.6035C23.8737-37.1251 23.9988-36.9809 24.5532-37.172ZM17.5187-34.8576C17.4935-34.8622 16.6063-34.7469 16.2487-35.672C15.6856-37.1294 18.1381-37.8105 18.5517-36.324C18.6982-35.7984 18.4287-35.4579 18.3821-35.3989C18.0144-34.9343 17.5478-34.8696 17.5187-34.8576ZM21.209-33.4169C21.8258-33.1562 21.9702-33.2577 22.1673-32.6162C22.7345-30.77 19.6454-30.6537 19.7701-32.2951C19.805-32.7536 20.2253-33.1173 20.2866-33.1706C20.5591-33.4065 20.5926-33.3207 21.209-33.4169ZM85.054-33.9663C84.9716-32.101 85.0587-32.0812 84.4229-30.3215C81.3777-21.8907 68.5851-21.4077 65.4854-30.9654C64.3937-34.3316 64.9632-41.1959 72.1736-43.5894C72.5514-43.7148 74.1874-44.2578 77.1407-43.8569C78.0765-43.7298 79.5674-42.9737 79.7679-42.8721C83.1066-41.1791 84.9776-37.0758 85.0235-34.9765C85.0346-34.4684 85.0386-34.4815 85.054-33.9663ZM66.5844-33.9643C67.2055-26.3969 73.7496-24.9361 76.48-25.6393C77.1229-25.8049 78.1586-25.7513 80.401-27.4014C83.2524-29.5 85.3533-35.9479 80.5579-40.3794C78.8823-41.9279 76.0319-42.7809 75.7581-42.0409C75.5435-41.4603 75.9957-37.4851 75.3967-37.117C75.2436-37.0232 74.5246-36.866 74.3667-37.6235C74.3034-37.9258 74.3697-41.8622 74.3248-41.9701C73.9823-42.7954 71.2643-41.9175 69.4958-40.2895C66.8673-37.8698 66.686-34.8626 66.5844-33.9643ZM39.5901-48.8555C40.4482-49.0693 40.4304-49.2185 41.3076-49.1246C43.5828-48.8806 45.4622-47.3331 45.9938-45.6974C46.6266-43.749 46.4912-43.2887 46.1054-41.9765C45.1431-38.7021 41.7269-38.2134 40.9657-38.2144C40.2994-38.2151 38.8708-38.6887 38.6805-38.7839C34.4099-40.9163 34.6606-47.4671 39.5901-48.8555ZM40.959-39.8535C45.9724-40.1353 45.5943-46.0473 42.3571-47.1869C41.2724-47.5687 41.5272-46.8487 41.5235-45.6987C41.5231-45.5955 41.5198-44.5695 41.2526-44.4367C41.19-44.4056 40.6684-44.1465 40.599-45.022C40.5662-45.4369 40.7214-47.1658 40.2726-47.3029C39.2137-47.6257 36.0302-44.9164 37.7543-41.756C38.666-40.0854 40.6624-39.8836 40.959-39.8535ZM99.7431-43.6866C99.7334-43.4161 99.9489-40.8707 97.3854-39.1643C94.0557-36.9474 90.4213-39.1224 89.5599-41.3366C89.0595-42.6234 89.0199-42.6251 89.0387-44.0131C89.0896-47.7373 94.347-51.2051 98.1007-47.5328C99.8849-45.7875 99.7193-44.0815 99.7431-43.6866ZM98.1439-43.038C98.1852-43.8327 98.2991-44.4106 97.6117-45.6974C97.1139-46.6295 95.7943-47.3954 95.2671-47.3481C94.4556-47.2754 95.1662-44.6576 94.5726-44.4009C93.6756-44.0127 93.9334-46.5182 93.9293-46.7033C93.8955-48.1955 91.7503-46.6097 91.2301-45.7054C89.3906-42.5078 92.2521-39.1526 95.2751-39.9543C97.6847-40.5935 97.9777-42.5319 98.1439-43.038ZM90.0556-28.2695C90.1139-28.6751 90.0603-30.3148 91.8157-31.7427C95.1005-34.4144 99.6036-30.9041 98.6665-27.2502C97.5396-22.8583 90.6965-22.4997 90.0556-28.2695ZM97.7608-28.2675C97.2728-33.2141 91.1332-32.0943 91.1466-28.2695C91.1604-24.4149 97.3378-23.407 97.7608-28.2675ZM93.8894-30.4328C94.0239-30.4445 95.0455-30.5334 95.5617-30.2109C97.621-28.9262 96.5528-26.1391 94.5823-26.059C92.2407-25.9638 90.9211-29.3468 93.8894-30.4328ZM38.2933-24.9281C37.9652-25.2204 35.6571-27.275 37.213-30.3118C39.4269-34.6323 46.326-32.4717 45.1522-27.2258C44.4684-24.1716 41.0049-22.9311 38.2933-24.9281ZM44.1771-28.9144C43.969-29.7624 44.0638-29.8124 43.4813-30.477C41.5138-32.7228 37.8686-31.1709 37.7423-28.594C37.517-24.0107 44.6832-23.3903 44.1771-28.9144ZM43.1313-27.9149C42.9195-27.0015 42.9876-26.9174 42.221-26.3952C40.6222-25.3062 37.6206-27.1185 39.263-29.627C40.2035-31.0636 43.1645-30.773 43.1642-28.2672C43.1642-28.1492 43.1313-28.0329 43.1313-27.9149ZM49.842-47.3706C49.8561-47.921 49.8521-48.838 50.067-48.9758C50.7876-49.438 50.7165-48.1184 50.7065-45.0267C50.6458-26.2125 50.7266-26.2149 50.7025-24.5795C50.6834-23.2961 50.008-23.7281 49.9513-23.8619C49.7626-24.306 49.8565-24.3295 49.8585-35.9774C49.8605-45.9786 49.8541-46.4592 49.842-47.3706ZM78.8417-48.1878C78.9607-48.1918 81.1672-48.4422 80.9474-47.3435C80.8616-46.9137 80.7047-46.7592 75.4889-46.8698C71.1007-46.963 69.0584-46.5484 69.2093-47.6863C69.3078-48.4301 71.0551-48.1925 78.8417-48.1878ZM59.736-25.0873C59.9706-25.0474 60.2139-25.0816 60.4486-25.0417C60.9115-24.9633 61.0006-24.3469 60.4161-24.2111C60.0658-24.1297 54.7293-24.1649 54.6995-24.1676C53.633-24.2571 53.9655-24.9123 54.3328-25.0119C54.7501-25.1248 54.7585-25.0772 59.736-25.0873ZM57.7255-29.389C55.2405-29.3974 53.9296-29.2463 54.0151-29.9488C54.0556-30.2846 55.2653-30.29 55.3779-30.2903C60.2646-30.3121 60.7807-30.3389 60.8401-29.977C60.9681-29.1926 59.2955-29.3857 57.7255-29.389ZM56.7193-27.7359C56.9449-27.7299 57.1708-27.7396 57.3964-27.7332C58.5625-27.7017 58.1596-26.9466 57.7514-26.8437C57.7336-26.8393 54.4277-26.6553 54.1126-26.9995C54.0744-27.0414 53.6883-27.4634 54.3342-27.6742C54.6134-27.7654 56.0962-27.7369 56.7193-27.7359Z"/>
  </g>
 </g>
</svg>
